<?xml version="1.0" encoding="UTF-8"?>
<svg viewBox="0 0 84 156" version="1.1" xmlns="http://www.w3.org/2000/svg" xmlns:xlink="http://www.w3.org/1999/xlink">
    <defs></defs>
    <g id="Assets" stroke="none" stroke-width="1" fill="none" fill-rule="evenodd">
        <g id="Artboard-3" transform="translate(-127.000000, -379.000000)" fill="#E9E7E7">
            <g id="female" transform="translate(127.000000, 379.000000)">
                <path d="M73.1453323,50.6234735 C68.6176904,37.2728366 61.1803361,35.4251495 48.4525733,35.4251495 L35.6816632,35.4251495 C22.9539004,35.4251495 15.5227123,37.2728366 10.988888,50.6234735 C6.44907559,63.9649811 1.89683359,77.3459692 0.841859292,81.3913663 C-0.385396992,86.0943179 -0.382321973,90.0787084 4.04377951,91.3997593 C8.58368907,92.7573918 11.9548972,89.917455 13.8002808,84.6149766 C13.8187795,84.5571092 21.9697325,58.8572304 21.9697325,58.8572304 L25.3777599,58.8572304 L16.1600345,115.07841 L25.3777599,115.078413 L25.3777599,147.566262 C25.3837643,152.144237 27.9122391,155.848821 32.1875029,155.848821 C36.4630579,155.848821 39.6496677,152.138295 39.6496677,147.56016 C39.6496677,147.377476 39.6310072,147.204018 39.6250029,147.0337 L39.6433397,115.078429 L44.4908968,115.078429 L44.5155455,147.0337 C44.5032131,147.204034 44.4908968,147.377492 44.4908968,147.56016 C44.4908968,152.138295 47.6713243,155.848821 51.9528998,155.848821 C56.2283092,155.848821 58.7566384,152.144237 58.7626428,147.566262 L58.7626428,115.078413 L68.4677283,115.07841 L58.7626428,58.8572304 L62.1708321,58.8572304 C62.1708321,58.8572304 70.3094526,84.5571092 70.3341013,84.6149766 C72.1856674,89.917455 75.5507093,92.7573918 80.0905217,91.3997593 C84.5197144,90.0787084 84.5258806,86.0943179 83.2954684,81.3913663 C82.2436339,77.3459692 77.6853227,63.9649811 73.1453323,50.6234735 Z" id="Shape"></path>
                <path d="M41.5873505,32.1620427 C50.5687043,32.1620427 57.8462709,24.9601281 57.8462709,16.0779622 C57.8462709,7.19581232 50.5687043,0 41.5873505,0 C32.6181835,0 25.3347744,7.19581232 25.3347744,16.0779622 C25.3347744,24.9601281 32.6181835,32.1620427 41.5873505,32.1620427 L41.5873505,32.1620427 Z" id="Shape"></path>
            </g>
        </g>
    </g>
</svg>
