<?xml version="1.0" encoding="UTF-8"?>
<svg viewBox="0 0 623 851" version="1.1" xmlns="http://www.w3.org/2000/svg" xmlns:xlink="http://www.w3.org/1999/xlink">
  <defs>
      <ellipse id="path-1" cx="68.6922237" cy="68.7196315" rx="68.6922237" ry="68.7196315"></ellipse>
      <mask id="mask-2" maskContentUnits="userSpaceOnUse" maskUnits="objectBoundingBox" x="-4" y="-4" width="145.384447" height="145.439263">
          <rect x="-4" y="-4" width="145.384447" height="145.439263" fill="white"></rect>
          <use xlink:href="#path-1" fill="black"></use>
      </mask>
      <ellipse id="path-3" cx="67.6018709" cy="67.6288437" rx="32.7105827" ry="32.7236341"></ellipse>
      <mask id="mask-4" maskContentUnits="userSpaceOnUse" maskUnits="objectBoundingBox" x="-4" y="-4" width="73.4211654" height="73.4472681">
          <rect x="30.8912882" y="30.9052097" width="73.4211654" height="73.4472681" fill="white"></rect>
          <use xlink:href="#path-3" fill="black"></use>
      </mask>
  </defs>
    <g id="Logos" stroke="none" stroke-width="1" fill="none" fill-rule="evenodd">
        <g id="hoof-steth" transform="translate(-161.000000, -94.000000)">
            <g id="hoof-logo" transform="translate(165.000000, 94.000000)">
                <path d="M277.764324,48.6316987 C283.259726,56.3033676 273.368,83.2869328 263.346205,83.2821155 C226.751896,83.2645251 149.406297,434.407009 378.33029,434.407011 C612.463244,434.407012 525.607218,83.2821118 490.436607,83.2821118 C482.743036,83.2821118 475.384772,56.0619077 477.247628,48.6317 C478.89625,42.0559845 479.445791,44.795866 539.895285,0.957760993 C548.160764,-5.03638282 564.351394,49.7660186 564.351394,49.7660186 C564.351394,49.7660186 771.801506,504.000002 378.33029,504 C-15.1409254,503.999998 190.936878,43.699912 190.936878,43.699912 C190.936878,43.699912 208.95205,-4.89481444 216.221728,0.403829137 C273.368,42.055985 274.314334,43.8154564 277.764324,48.6316987 Z M184.342389,201.296575 C187.984425,201.296575 190.936878,195.629168 190.936878,188.638068 C190.936878,181.646968 187.984425,175.979561 184.342389,175.979561 C180.700353,175.979561 177.747899,181.646968 177.747899,188.638068 C177.747899,195.629168 180.700353,201.296575 184.342389,201.296575 Z M179.946063,305.866849 C183.588099,305.866849 186.540552,300.199442 186.540552,293.208342 C186.540552,286.217242 183.588099,280.549835 179.946063,280.549835 C176.304027,280.549835 173.351573,286.217242 173.351573,293.208342 C173.351573,300.199442 176.304027,305.866849 179.946063,305.866849 Z M214.017592,410.437123 C217.659628,410.437123 220.612082,404.769717 220.612082,397.778616 C220.612082,390.787516 217.659628,385.120109 214.017592,385.120109 C210.375556,385.120109 207.423102,390.787516 207.423102,397.778616 C207.423102,404.769717 210.375556,410.437123 214.017592,410.437123 Z M571.21911,201.296575 C574.861146,201.296575 577.8136,195.629168 577.8136,188.638068 C577.8136,181.646968 574.861146,175.979561 571.21911,175.979561 C567.577074,175.979561 564.62462,181.646968 564.62462,188.638068 C564.62462,195.629168 567.577074,201.296575 571.21911,201.296575 Z M575.615436,305.866849 C579.257472,305.866849 582.209926,300.199442 582.209926,293.208342 C582.209926,286.217242 579.257472,280.549835 575.615436,280.549835 C571.9734,280.549835 569.020947,286.217242 569.020947,293.208342 C569.020947,300.199442 571.9734,305.866849 575.615436,305.866849 Z M541.543907,410.437123 C545.185943,410.437123 548.138397,404.769717 548.138397,397.778616 C548.138397,390.787516 545.185943,385.120109 541.543907,385.120109 C537.901871,385.120109 534.949417,390.787516 534.949417,397.778616 C534.949417,404.769717 537.901871,410.437123 541.543907,410.437123 Z" id="hoof" fill="#FFFFFF"></path>
                <g id="bottom" transform="translate(0.000000, 504.000000)">
                    <path d="M50.4999999,165 C10.7579902,305.932398 213.765735,332 356.547569,332 C499.329403,332 503.055741,232.986074 472.741043,166.000001 C442.426344,99.0139282 380.128108,80.6331621 380.128108,-1.00027178e-16" id="J" stroke="#FFFFFF" stroke-width="30"></path>
                    <g id="bell" transform="translate(0.000000, 28.000000)">
                        <g id="bell-outer">
                            <use fill="#FFFFFF" fill-rule="evenodd" xlink:href="#path-1"></use>
                            <use stroke="#68946B" mask="url(#mask-2)" stroke-width="8" xlink:href="#path-1"></use>
                        </g>
                        <g id="bell-inner">
                            <use fill="#79AD7E" fill-rule="evenodd" xlink:href="#path-3"></use>
                            <use stroke="#67946B" mask="url(#mask-4)" stroke-width="8" xlink:href="#path-3"></use>
                        </g>
                    </g>
                </g>
            </g>
        </g>
    </g>
</svg>
