<?xml version="1.0" encoding="UTF-8"?>
<svg viewBox="0 0 890 146" version="1.1" xmlns="http://www.w3.org/2000/svg" xmlns:xlink="http://www.w3.org/1999/xlink">
    <defs></defs>
    <g id="Logos" stroke="none" stroke-width="1" fill="none" fill-rule="evenodd">
        <g id="hoofbeats-quote" transform="translate(-70.000000, -330.000000)" fill="#444444">
            <g id="hoofbeats-quote-wrapper" transform="translate(23.000000, 330.000000)">
                <path d="M47.4920075,2.56000237 L77.900007,2.56000237 L77.900007,66.7360013 C82.0440277,61.6959762 86.2439856,58.3080101 90.5000068,56.5720015 C94.756028,54.8359928 99.7399781,53.9680015 105.452007,53.9680015 C116.316061,53.9680015 124.519978,56.9639715 130.064006,62.9560013 C135.608034,68.9480312 138.380006,77.0399501 138.380006,87.2320009 L138.380006,142 L107.972006,142 L107.972006,98.4880007 C107.972006,94.119979 107.63601,90.5920143 106.964007,87.9040009 C106.292003,85.2159875 105.172014,83.1440083 103.604007,81.688001 C100.915993,79.3359893 97.6680257,78.1600011 93.8600067,78.1600011 C88.7079811,78.1600011 84.7600206,79.6999857 82.0160069,82.780001 C79.2719933,85.8600164 77.900007,90.2559723 77.900007,95.9680008 L77.900007,142 L47.4920075,142 L47.4920075,2.56000237 Z M187.772005,98.4880007 C187.772005,101.400015 188.304,104.059989 189.368005,106.468001 C190.43201,108.876013 191.831996,110.975992 193.568005,112.768 C195.304014,114.560009 197.375993,115.959995 199.784005,116.968 C202.192017,117.976005 204.739991,118.48 207.428005,118.48 C210.116018,118.48 212.663993,117.976005 215.072005,116.968 C217.480017,115.959995 219.551996,114.560009 221.288005,112.768 C223.024013,110.975992 224.423999,108.876013 225.488004,106.468001 C226.55201,104.059989 227.084004,101.456015 227.084004,98.6560007 C227.084004,95.9679873 226.55201,93.4200129 225.488004,91.0120009 C224.423999,88.6039889 223.024013,86.5040099 221.288005,84.712001 C219.551996,82.919992 217.480017,81.5200061 215.072005,80.512001 C212.663993,79.503996 210.116018,79.0000011 207.428005,79.0000011 C204.739991,79.0000011 202.192017,79.503996 199.784005,80.512001 C197.375993,81.5200061 195.304014,82.919992 193.568005,84.712001 C191.831996,86.5040099 190.43201,88.5759891 189.368005,90.9280009 C188.304,93.2800126 187.772005,95.7999873 187.772005,98.4880007 L187.772005,98.4880007 Z M155.684006,98.1520007 C155.684006,91.7679689 156.971993,85.8040287 159.548006,80.2600011 C162.124018,74.7159734 165.707983,69.9000217 170.300005,65.8120013 C174.892028,61.7239809 180.351974,58.5040132 186.680005,56.1520015 C193.008037,53.7999897 199.923967,52.6240015 207.428005,52.6240015 C214.820042,52.6240015 221.679973,53.77199 228.008004,56.0680015 C234.336036,58.3640129 239.823981,61.5559809 244.472004,65.6440013 C249.120027,69.7320217 252.731991,74.6039729 255.308004,80.2600011 C257.884017,85.9160292 259.172004,92.1599667 259.172004,98.9920007 C259.172004,105.824035 257.856017,112.067972 255.224004,117.724 C252.591991,123.380029 248.980027,128.25198 244.388004,132.34 C239.795981,136.428021 234.280037,139.591989 227.840004,141.832 C221.399972,144.072011 214.428042,145.192 206.924005,145.192 C199.531968,145.192 192.700036,144.072011 186.428005,141.832 C180.155974,139.591989 174.752028,136.400021 170.216005,132.256 C165.679983,128.11198 162.124018,123.156029 159.548006,117.388 C156.971993,111.619972 155.684006,105.208036 155.684006,98.1520007 L155.684006,98.1520007 Z M305.372003,98.4880007 C305.372003,101.400015 305.903998,104.059989 306.968003,106.468001 C308.032008,108.876013 309.431994,110.975992 311.168003,112.768 C312.904012,114.560009 314.975991,115.959995 317.384003,116.968 C319.792015,117.976005 322.339989,118.48 325.028003,118.48 C327.716016,118.48 330.263991,117.976005 332.672003,116.968 C335.080015,115.959995 337.151994,114.560009 338.888003,112.768 C340.624011,110.975992 342.023997,108.876013 343.088002,106.468001 C344.152008,104.059989 344.684002,101.456015 344.684002,98.6560007 C344.684002,95.9679873 344.152008,93.4200129 343.088002,91.0120009 C342.023997,88.6039889 340.624011,86.5040099 338.888003,84.712001 C337.151994,82.919992 335.080015,81.5200061 332.672003,80.512001 C330.263991,79.503996 327.716016,79.0000011 325.028003,79.0000011 C322.339989,79.0000011 319.792015,79.503996 317.384003,80.512001 C314.975991,81.5200061 312.904012,82.919992 311.168003,84.712001 C309.431994,86.5040099 308.032008,88.5759891 306.968003,90.9280009 C305.903998,93.2800126 305.372003,95.7999873 305.372003,98.4880007 L305.372003,98.4880007 Z M273.284004,98.1520007 C273.284004,91.7679689 274.571991,85.8040287 277.148004,80.2600011 C279.724016,74.7159734 283.307981,69.9000217 287.900003,65.8120013 C292.492026,61.7239809 297.951972,58.5040132 304.280003,56.1520015 C310.608035,53.7999897 317.523965,52.6240015 325.028003,52.6240015 C332.42004,52.6240015 339.279971,53.77199 345.608002,56.0680015 C351.936034,58.3640129 357.423979,61.5559809 362.072002,65.6440013 C366.720025,69.7320217 370.331989,74.6039729 372.908002,80.2600011 C375.484015,85.9160292 376.772002,92.1599667 376.772002,98.9920007 C376.772002,105.824035 375.456015,112.067972 372.824002,117.724 C370.191989,123.380029 366.580025,128.25198 361.988002,132.34 C357.395979,136.428021 351.880035,139.591989 345.440002,141.832 C338.99997,144.072011 332.02804,145.192 324.524003,145.192 C317.131966,145.192 310.300034,144.072011 304.028003,141.832 C297.755972,139.591989 292.352026,136.400021 287.816003,132.256 C283.279981,128.11198 279.724016,123.156029 277.148004,117.388 C274.571991,111.619972 273.284004,105.208036 273.284004,98.1520007 L273.284004,98.1520007 Z M427.172001,81.184001 L427.172001,142 L396.764002,142 L396.764002,81.184001 L385.844002,81.184001 L385.844002,55.8160015 L396.764002,55.8160015 L396.764002,42.8800017 C396.764002,35.711966 397.435995,30.0000232 398.780002,25.744002 C399.900007,22.1599841 401.691989,18.8280175 404.156001,15.7480022 C406.620014,12.6679868 409.503985,10.0080134 412.808001,7.76800229 C416.112018,5.52799112 419.667982,3.79200851 423.476001,2.56000237 C427.28402,1.32799624 431.035983,0.712002406 434.732001,0.712002406 C437.308014,0.712002406 439.68799,0.991999601 441.872001,1.55200239 C444.056012,2.11200518 446.26799,2.89599733 448.508001,3.90400235 L448.508001,30.4480019 C446.491991,29.4399969 444.616009,28.6840044 442.880001,28.1800019 C441.143992,27.6759994 439.32401,27.424002 437.420001,27.424002 C436.187995,27.424002 434.928007,27.62 433.640001,28.0120019 C432.351995,28.4040039 431.148007,29.2159958 430.028001,30.4480019 C428.907995,31.680008 428.152003,33.4439904 427.760001,35.7400018 C427.367999,38.0360133 427.172001,41.1439821 427.172001,45.0640017 L427.172001,55.8160015 L448.508001,55.8160015 L448.508001,81.184001 L427.172001,81.184001 Z M528.643999,99.1600007 C528.643999,96.4719873 528.140004,93.9240129 527.131999,91.5160009 C526.123994,89.1079889 524.724008,87.0080099 522.931999,85.216001 C521.139991,83.423992 519.068011,81.9960063 516.716,80.932001 C514.363988,79.8679957 511.788014,79.3360011 508.988,79.3360011 C506.299986,79.3360011 503.780012,79.839996 501.428,80.848001 C499.075988,81.8560061 497.032009,83.255992 495.296,85.048001 C493.559991,86.8400099 492.160005,88.9399889 491.096,91.3480009 C490.031995,93.7560129 489.5,96.3039873 489.5,98.9920007 C489.5,101.680014 490.003995,104.199989 491.012,106.552001 C492.020005,108.904012 493.419991,110.947992 495.212,112.684 C497.004009,114.420009 499.103988,115.819995 501.512,116.884 C503.920012,117.948006 506.467986,118.48 509.156,118.48 C511.844013,118.48 514.363988,117.976005 516.716,116.968 C519.068011,115.959995 521.111991,114.560009 522.847999,112.768 C524.584008,110.975992 525.983994,108.904012 527.047999,106.552001 C528.112005,104.199989 528.643999,101.736014 528.643999,99.1600007 L528.643999,99.1600007 Z M490.34,2.56000237 L490.34,64.3840013 C497.508036,56.8799639 506.467946,53.1280015 517.22,53.1280015 C523.604031,53.1280015 529.455973,54.3319895 534.775999,56.7400015 C540.096026,59.1480135 544.63198,62.3959809 548.383999,66.4840013 C552.136018,70.5720217 555.075988,75.3879734 557.203999,80.932001 C559.332009,86.4760287 560.395999,92.3839695 560.395999,98.6560007 C560.395999,105.040033 559.30401,111.031973 557.119999,116.632 C554.935988,122.232028 551.884019,127.10398 547.963999,131.248 C544.043979,135.392021 539.424026,138.667988 534.103999,141.076 C528.783973,143.484012 523.04403,144.688 516.884,144.688 C505.683944,144.688 496.836032,140.600041 490.34,132.424 L490.34,142 L459.932001,142 L459.932001,2.56000237 L490.34,2.56000237 Z M640.699997,86.3920009 C639.691992,82.1359797 637.620013,78.720014 634.483998,76.1440011 C631.347982,73.5679883 627.54002,72.2800012 623.059998,72.2800012 C618.355974,72.2800012 614.520013,73.5119888 611.551998,75.9760011 C608.583983,78.4400134 606.708002,81.9119786 605.923998,86.3920009 L640.699997,86.3920009 Z M605.083998,104.032001 C605.083998,117.136066 611.243936,123.688 623.563998,123.688 C630.172031,123.688 635.155981,121.000027 638.515997,115.624 L667.915997,115.624 C661.979967,135.336099 647.140116,145.192 623.395998,145.192 C616.115961,145.192 609.452028,144.100011 603.403998,141.916 C597.355968,139.731989 592.17602,136.62402 587.863998,132.592 C583.551977,128.55998 580.22001,123.744028 577.867998,118.144 C575.515987,112.543973 574.339999,106.272035 574.339999,99.3280007 C574.339999,92.159965 575.459987,85.6920298 577.699998,79.9240011 C579.94001,74.1559723 583.131978,69.2560214 587.275998,65.2240013 C591.420019,61.1919812 596.431969,58.0840123 602.311998,55.9000015 C608.192027,53.7159906 614.827961,52.6240015 622.219998,52.6240015 C629.500034,52.6240015 636.051968,53.7159906 641.875997,55.9000015 C647.700026,58.0840123 652.627977,61.2479807 656.659997,65.3920013 C660.692017,69.536022 663.771986,74.6039712 665.899997,80.596001 C668.028008,86.5880309 669.091997,93.3359633 669.091997,100.840001 L669.091997,104.032001 L605.083998,104.032001 Z M714.619996,98.6560007 C714.619996,101.456015 715.123991,104.059989 716.131996,106.468001 C717.140001,108.876013 718.511987,110.975992 720.247996,112.768 C721.984005,114.560009 724.055984,115.959995 726.463996,116.968 C728.872008,117.976005 731.475982,118.48 734.275996,118.48 C736.964009,118.48 739.511984,117.976005 741.919996,116.968 C744.328008,115.959995 746.399987,114.560009 748.135996,112.768 C749.872004,110.975992 751.27199,108.904012 752.335996,106.552001 C753.400001,104.199989 753.931995,101.680014 753.931995,98.9920007 C753.931995,96.3039873 753.400001,93.7560129 752.335996,91.3480009 C751.27199,88.9399889 749.872004,86.8400099 748.135996,85.048001 C746.399987,83.255992 744.328008,81.8560061 741.919996,80.848001 C739.511984,79.839996 736.964009,79.3360011 734.275996,79.3360011 C731.475982,79.3360011 728.872008,79.839996 726.463996,80.848001 C724.055984,81.8560061 721.984005,83.255992 720.247996,85.048001 C718.511987,86.8400099 717.140001,88.8839894 716.131996,91.1800009 C715.123991,93.4760123 714.619996,95.9679873 714.619996,98.6560007 L714.619996,98.6560007 Z M752.923996,55.8160015 L783.499995,55.8160015 L783.499995,142 L752.923996,142 L752.923996,132.424 C746.427963,140.600041 737.636051,144.688 726.547996,144.688 C720.275965,144.688 714.508022,143.540011 709.243996,141.244 C703.97997,138.947989 699.388016,135.728021 695.467996,131.584 C691.547977,127.43998 688.496008,122.568028 686.311997,116.968 C684.127986,111.367973 683.035997,105.264034 683.035997,98.6560007 C683.035997,92.49597 684.099986,86.6440287 686.227997,81.100001 C688.356007,75.5559734 691.323978,70.7120219 695.131996,66.5680013 C698.940015,62.4239806 703.47597,59.1480135 708.739996,56.7400015 C714.004022,54.3319895 719.827964,53.1280015 726.211996,53.1280015 C736.96405,53.1280015 745.86796,56.8799639 752.923996,64.3840013 L752.923996,55.8160015 Z M838.099994,81.184001 L838.099994,142 L807.691995,142 L807.691995,81.184001 L797.611995,81.184001 L797.611995,55.8160015 L807.691995,55.8160015 L807.691995,29.9440019 L838.099994,29.9440019 L838.099994,55.8160015 L855.403994,55.8160015 L855.403994,81.184001 L838.099994,81.184001 Z M923.947993,77.9920011 C918.347965,75.0799866 912.86002,73.6240012 907.483993,73.6240012 C904.683979,73.6240012 902.416002,74.1839956 900.679993,75.3040011 C898.943984,76.4240067 898.075993,77.9359916 898.075993,79.8400011 C898.075993,80.8480061 898.215992,81.6599979 898.495993,82.276001 C898.775994,82.8920041 899.391988,83.4799982 900.343993,84.040001 C901.295998,84.6000038 902.695984,85.1039987 904.543993,85.552001 C906.392002,86.0000032 908.827978,86.5599976 911.851993,87.2320009 C920.252035,88.9120093 926.523972,91.9079793 930.667992,96.2200008 C934.812013,100.532022 936.883992,106.047967 936.883992,112.768 C936.883992,117.808026 935.876002,122.34398 933.859992,126.376 C931.843982,130.40802 929.04401,133.795986 925.459993,136.54 C921.875975,139.284014 917.564018,141.411992 912.523993,142.924 C907.483968,144.436008 901.940023,145.192 895.891993,145.192 C884.243935,145.192 872.76405,141.888033 861.451994,135.28 L872.539993,113.776 C881.052036,119.60003 889.115955,122.512 896.731993,122.512 C899.532007,122.512 901.827984,121.896007 903.619993,120.664 C905.412002,119.431994 906.307993,117.86401 906.307993,115.96 C906.307993,114.839995 906.167994,113.916004 905.887993,113.188 C905.607992,112.459997 905.019997,111.788004 904.123993,111.172001 C903.227988,110.555997 901.912002,109.996003 900.175993,109.492001 C898.439984,108.987998 896.172007,108.456003 893.371993,107.896001 C883.963946,105.991991 877.384012,103.164019 873.631993,99.4120007 C869.879975,95.659982 868.003994,90.4800339 868.003994,83.872001 C868.003994,79.055977 868.899985,74.7160205 870.691994,70.8520012 C872.484002,66.987982 875.059977,63.7120148 878.419993,61.0240014 C881.78001,58.335988 885.839969,56.2640087 890.599993,54.8080015 C895.360017,53.3519942 900.651964,52.6240015 906.475993,52.6240015 C915.99604,52.6240015 925.235948,54.471983 934.195992,58.1680014 L923.947993,77.9920011 Z" id="hoofbeats-outline"></path>
            </g>
        </g>
    </g>
</svg>
