<?xml version="1.0" encoding="UTF-8"?>
<svg viewBox="0 0 970 170" version="1.1" xmlns="http://www.w3.org/2000/svg" xmlns:xlink="http://www.w3.org/1999/xlink">
    <defs>
        <path d="M16.6906738,54.2363281 L37.8942871,54.2363281 L37.8942871,62 L0.357666016,62 L23.4655762,34.0214844 L5.26489258,34.0214844 L5.26489258,26.3310547 L39.7619629,26.3310547 L16.6906738,54.2363281 Z M78.104248,46.1064453 L52.5427246,46.1064453 C52.7624523,49.0361475 53.7145912,51.3676671 55.3991699,53.1010742 C57.0837487,54.8100671 59.2443716,55.6645508 61.8811035,55.6645508 C63.931895,55.6645508 65.6286554,55.1762744 66.9714355,54.199707 C68.2898015,53.2231396 69.7912513,51.4165171 71.4758301,48.7797852 L78.4338379,52.6616211 C77.3596138,54.4926849 76.2243712,56.0612728 75.0280762,57.3674316 C73.8317811,58.6735905 72.5500557,59.7477985 71.1828613,60.5900879 C69.815667,61.4323773 68.338631,62.0488262 66.751709,62.4394531 C65.164787,62.8300801 63.4436128,63.0253906 61.5881348,63.0253906 C56.2658425,63.0253906 51.9934243,61.3164233 48.770752,57.8984375 C45.5480796,54.4560375 43.9367676,49.8906534 43.9367676,44.2021484 C43.9367676,38.5624718 45.499252,33.9970878 48.6242676,30.5058594 C51.7736974,27.0634594 55.9484603,25.3422852 61.1486816,25.3422852 C66.3977313,25.3422852 70.5480804,27.0146317 73.5998535,30.359375 C76.6272124,33.6797041 78.1408691,38.2817089 78.1408691,44.1655273 L78.104248,46.1064453 Z M69.6447754,39.3681641 C68.4973087,34.9736108 65.7263403,32.7763672 61.3317871,32.7763672 C60.3308055,32.7763672 59.3908735,32.9289536 58.5119629,33.2341309 C57.6330522,33.5393082 56.8334997,33.9787569 56.1132812,34.5524902 C55.3930628,35.1262236 54.7766139,35.8159139 54.263916,36.621582 C53.7512181,37.4272501 53.360597,38.3427683 53.092041,39.3681641 L69.6447754,39.3681641 Z M95.3527832,0.146972656 L95.3527832,30.4692383 C98.6486981,27.0512524 102.384012,25.3422852 106.558838,25.3422852 C111.368432,25.3422852 115.372298,27.1367008 118.570557,30.7255859 C121.768815,34.2900569 123.36792,38.7333718 123.36792,44.0556641 C123.36792,49.5488556 121.756608,54.0898258 118.533936,57.6787109 C115.335677,61.2431819 111.29519,63.0253906 106.412354,63.0253906 C102.286356,63.0253906 98.5998698,61.4384924 95.3527832,58.2646484 L95.3527832,62 L87.1130371,62 L87.1130371,0.146972656 L95.3527832,0.146972656 Z M114.945068,44.421875 C114.945068,41.0038892 114.017343,38.2207139 112.161865,36.0722656 C110.281973,33.874989 107.92604,32.7763672 105.093994,32.7763672 C102.066635,32.7763672 99.6008396,33.8383683 97.6965332,35.9624023 C95.816641,38.0620222 94.876709,40.7963699 94.876709,44.1655273 C94.876709,47.6323416 95.8044341,50.4033099 97.6599121,52.4785156 C99.5153901,54.6025497 101.956772,55.6645508 104.984131,55.6645508 C107.84059,55.6645508 110.208731,54.6025497 112.088623,52.4785156 C113.992929,50.3300674 114.945068,47.6445474 114.945068,44.421875 L114.945068,44.421875 Z M132.08374,26.3310547 L140.323486,26.3310547 L140.323486,29.5170898 C141.837166,27.9301678 143.179926,26.8437529 144.351807,26.2578125 C145.548102,25.6474579 146.964103,25.3422852 148.599854,25.3422852 C150.772716,25.3422852 153.043201,26.0502859 155.411377,27.4663086 L151.639404,35.0102539 C150.076896,33.8872014 148.551033,33.3256836 147.061768,33.3256836 C142.569558,33.3256836 140.323486,36.7192043 140.323486,43.5063477 L140.323486,62 L132.08374,62 L132.08374,26.3310547 Z M186.429443,26.3310547 L194.705811,26.3310547 L194.705811,62 L186.429443,62 L186.429443,58.2646484 C183.035872,61.4384924 179.386006,63.0253906 175.479736,63.0253906 C170.548071,63.0253906 166.470963,61.2431819 163.248291,57.6787109 C160.050033,54.0409974 158.450928,49.5000272 158.450928,44.0556641 C158.450928,38.7089576 160.050033,34.2534358 163.248291,30.6889648 C166.446549,27.1244939 170.450415,25.3422852 175.26001,25.3422852 C179.410421,25.3422852 183.133528,27.0512524 186.429443,30.4692383 L186.429443,26.3310547 Z M166.873779,44.0556641 C166.873779,47.4736499 167.789297,50.2568252 169.620361,52.4052734 C171.500254,54.5781359 173.868394,55.6645508 176.724854,55.6645508 C179.776627,55.6645508 182.242422,54.6147566 184.122314,52.5151367 C186.002207,50.3422743 186.942139,47.5835128 186.942139,44.2387695 C186.942139,40.8940262 186.002207,38.1352648 184.122314,35.9624023 C182.242422,33.8383683 179.80104,32.7763672 176.798096,32.7763672 C173.96605,32.7763672 171.59791,33.8505752 169.693604,35.9990234 C167.813711,38.1718859 166.873779,40.8574059 166.873779,44.0556641 L166.873779,44.0556641 Z M225.83374,32.4101562 L219.022217,36.0356445 C217.947993,33.8383679 216.61744,32.7397461 215.030518,32.7397461 C214.273678,32.7397461 213.626712,32.9899877 213.0896,33.4904785 C212.552488,33.9909693 212.283936,34.631832 212.283936,35.4130859 C212.283936,36.7802803 213.870834,38.1352472 217.044678,39.4780273 C221.414817,41.3579196 224.356682,43.0913007 225.870361,44.6782227 C227.384041,46.2651447 228.140869,48.4013538 228.140869,51.0869141 C228.140869,54.5293141 226.871351,57.4101447 224.332275,59.7294922 C221.866443,61.9267688 218.887957,63.0253906 215.396729,63.0253906 C209.415253,63.0253906 205.179456,60.1079393 202.689209,54.2729492 L209.720459,51.0136719 C210.697026,52.7226648 211.441648,53.8090797 211.954346,54.2729492 C212.955327,55.2006882 214.151604,55.6645508 215.543213,55.6645508 C218.32643,55.6645508 219.718018,54.3950322 219.718018,51.855957 C219.718018,50.391106 218.64381,49.0239321 216.495361,47.7543945 C215.665279,47.3393534 214.835209,46.9365254 214.005127,46.5458984 C213.175045,46.1552715 212.332768,45.7524435 211.478271,45.3374023 C209.085681,44.1655215 207.401128,42.9936582 206.424561,41.8217773 C205.179437,40.3325121 204.556885,38.4160273 204.556885,36.0722656 C204.556885,32.9716642 205.618886,30.4082133 207.74292,28.3818359 C209.915782,26.3554586 212.552475,25.3422852 215.653076,25.3422852 C220.218529,25.3422852 223.612049,27.6982186 225.83374,32.4101562 L225.83374,32.4101562 Z" id="path-1"></path>
    </defs>
    <g id="Logos" stroke="none" stroke-width="1" fill="none" fill-rule="evenodd">
        <g id="hoofbeats-quote" transform="translate(-27.000000, -518.000000)">
            <g id="hoofbeats-quote-wrapper" transform="translate(23.000000, 330.000000)">
                <g id="hoofbeats-quote-container" transform="translate(0.000000, 185.000000)">
                    <path d="M958.964717,88.894744 C959.158538,89.3513909 958.80966,90.9575555 958.456194,90.9572688 C957.165523,90.9562217 954.437567,111.85756 962.511649,111.85756 C970.769451,111.85756 967.706064,90.9572686 966.465606,90.9572686 C966.194256,90.9572686 965.934733,89.3370183 966.000435,88.8947441 C966.058581,88.5033324 966.077964,88.6664206 968.21,86.0570096 C968.501521,85.7002153 969.07256,88.962263 969.07256,88.962263 C969.07256,88.962263 976.389265,116 962.511649,116 C948.634034,116 955.902338,88.6011852 955.902338,88.6011852 C955.902338,88.6011852 956.537728,85.708642 956.794127,86.0240374 C958.80966,88.5033324 958.843037,88.6080629 958.964717,88.894744 Z M955.645161,98.0652174 C955.796594,98.0652174 955.919355,97.7002321 955.919355,97.25 C955.919355,96.7997679 955.796594,96.4347826 955.645161,96.4347826 C955.493728,96.4347826 955.370968,96.7997679 955.370968,97.25 C955.370968,97.7002321 955.493728,98.0652174 955.645161,98.0652174 Z M955.645161,104.26087 C955.796594,104.26087 955.919355,103.895884 955.919355,103.445652 C955.919355,102.99542 955.796594,102.630435 955.645161,102.630435 C955.493728,102.630435 955.370968,102.99542 955.370968,103.445652 C955.370968,103.895884 955.493728,104.26087 955.645161,104.26087 Z M956.741935,110.456522 C956.893368,110.456522 957.016129,110.091536 957.016129,109.641304 C957.016129,109.191072 956.893368,108.826087 956.741935,108.826087 C956.590503,108.826087 956.467742,109.191072 956.467742,109.641304 C956.467742,110.091536 956.590503,110.456522 956.741935,110.456522 Z M969.354839,98.0652174 C969.506272,98.0652174 969.629032,97.7002321 969.629032,97.25 C969.629032,96.7997679 969.506272,96.4347826 969.354839,96.4347826 C969.203406,96.4347826 969.080645,96.7997679 969.080645,97.25 C969.080645,97.7002321 969.203406,98.0652174 969.354839,98.0652174 Z M969.629032,104.26087 C969.780465,104.26087 969.903226,103.895884 969.903226,103.445652 C969.903226,102.99542 969.780465,102.630435 969.629032,102.630435 C969.477599,102.630435 969.354839,102.99542 969.354839,103.445652 C969.354839,103.895884 969.477599,104.26087 969.629032,104.26087 Z M968.258065,110.456522 C968.409497,110.456522 968.532258,110.091536 968.532258,109.641304 C968.532258,109.191072 968.409497,108.826087 968.258065,108.826087 C968.106632,108.826087 967.983871,109.191072 967.983871,109.641304 C967.983871,110.091536 968.106632,110.456522 968.258065,110.456522 Z" id="hoof-endQuote" fill="#FFFFFF" transform="translate(962.500000, 101.000000) scale(1, -1) rotate(-30.000000) translate(-962.500000, -101.000000) "></path>
                    <path d="M49.6679688,43.3310547 L59.0063477,63.6923828 L69.0771484,40.0717773 L79.2211914,63.6923828 L88.449707,43.3310547 L97.6782227,43.3310547 L79.0014648,81.6733398 L69.0771484,58.7119141 L59.0429688,81.6733398 L40.402832,43.3310547 L49.6679688,43.3310547 Z M103.244629,17.1469727 L111.484375,17.1469727 L111.484375,46.2973633 C114.414077,43.6606313 117.648908,42.3422852 121.188965,42.3422852 C125.217305,42.3422852 128.439929,43.6484244 130.856934,46.2607422 C132.907725,48.5312614 133.933105,52.1567134 133.933105,57.137207 L133.933105,79 L125.693359,79 L125.693359,57.90625 C125.693359,55.0497904 125.186773,52.9807193 124.173584,51.6989746 C123.160395,50.4172299 121.530773,49.7763672 119.284668,49.7763672 C116.403794,49.7763672 114.377447,50.6674716 113.205566,52.449707 C112.0581,54.2563567 111.484375,57.3569116 111.484375,61.7514648 L111.484375,79 L103.244629,79 L103.244629,17.1469727 Z M176.853027,63.1064453 L151.291504,63.1064453 C151.511232,66.0361475 152.46337,68.3676671 154.147949,70.1010742 C155.832528,71.8100671 157.993151,72.6645508 160.629883,72.6645508 C162.680674,72.6645508 164.377435,72.1762744 165.720215,71.199707 C167.038581,70.2231396 168.540031,68.4165171 170.224609,65.7797852 L177.182617,69.6616211 C176.108393,71.4926849 174.973151,73.0612728 173.776855,74.3674316 C172.58056,75.6735905 171.298835,76.7477985 169.931641,77.5900879 C168.564446,78.4323773 167.08741,79.0488262 165.500488,79.4394531 C163.913566,79.8300801 162.192392,80.0253906 160.336914,80.0253906 C155.014622,80.0253906 150.742204,78.3164233 147.519531,74.8984375 C144.296859,71.4560375 142.685547,66.8906534 142.685547,61.2021484 C142.685547,55.5624718 144.248031,50.9970878 147.373047,47.5058594 C150.522477,44.0634594 154.69724,42.3422852 159.897461,42.3422852 C165.146511,42.3422852 169.29686,44.0146317 172.348633,47.359375 C175.375992,50.6797041 176.889648,55.2817089 176.889648,61.1655273 L176.853027,63.1064453 Z M168.393555,56.3681641 C167.246088,51.9736108 164.47512,49.7763672 160.080566,49.7763672 C159.079585,49.7763672 158.139653,49.9289536 157.260742,50.2341309 C156.381832,50.5393082 155.582279,50.9787569 154.862061,51.5524902 C154.141842,52.1262236 153.525393,52.8159139 153.012695,53.621582 C152.499997,54.4272501 152.109376,55.3427683 151.84082,56.3681641 L168.393555,56.3681641 Z M185.861816,43.3310547 L194.138184,43.3310547 L194.138184,46.6269531 C197.019057,43.7704935 200.266095,42.3422852 203.879395,42.3422852 C208.029806,42.3422852 211.264637,43.6484244 213.583984,46.2607422 C215.585948,48.482433 216.586914,52.107885 216.586914,57.137207 L216.586914,79 L208.310547,79 L208.310547,59.078125 C208.310547,55.5624824 207.822271,53.1333075 206.845703,51.7905273 C205.89355,50.423333 204.160169,49.7397461 201.645508,49.7397461 C198.911119,49.7397461 196.970221,50.6430574 195.822754,52.449707 C194.699701,54.2319425 194.138184,57.3447043 194.138184,61.7880859 L194.138184,79 L185.861816,79 L185.861816,43.3310547 Z M261.374512,72.371582 L245.334473,43.3310547 L254.892578,43.3310547 L265.805664,63.8388672 L275.986328,43.3310547 L285.288086,43.3310547 L256.870117,98.4091797 L247.458496,98.4091797 L261.374512,72.371582 Z M289.206543,60.9091797 C289.206543,55.7577867 291.049786,51.3755063 294.736328,47.762207 C298.42287,44.1489077 302.915013,42.3422852 308.212891,42.3422852 C313.535183,42.3422852 318.051739,44.1611146 321.762695,47.7988281 C325.424823,51.4365416 327.255859,55.9042704 327.255859,61.2021484 C327.255859,66.5488549 325.412616,71.0287905 321.726074,74.6420898 C318.015118,78.230975 313.461941,80.0253906 308.066406,80.0253906 C302.7197,80.0253906 298.239764,78.1943542 294.626465,74.5322266 C291.013166,70.9189272 289.206543,66.377957 289.206543,60.9091797 L289.206543,60.9091797 Z M297.629395,61.0556641 C297.629395,64.620135 298.581533,67.439931 300.48584,69.5151367 C302.438975,71.6147566 305.014632,72.6645508 308.212891,72.6645508 C311.435563,72.6645508 314.011221,71.6269635 315.939941,69.5517578 C317.868662,67.4765521 318.833008,64.7055837 318.833008,61.2387695 C318.833008,57.7719553 317.868662,55.0009869 315.939941,52.9257812 C313.986807,50.8261614 311.411149,49.7763672 308.212891,49.7763672 C305.063461,49.7763672 302.512217,50.8261614 300.559082,52.9257812 C298.605947,55.0254011 297.629395,57.735335 297.629395,61.0556641 L297.629395,61.0556641 Z M344.211426,43.3310547 L344.211426,63.8022461 C344.211426,69.7104788 346.542945,72.6645508 351.206055,72.6645508 C355.869164,72.6645508 358.200684,69.7104788 358.200684,63.8022461 L358.200684,43.3310547 L366.44043,43.3310547 L366.44043,63.9853516 C366.44043,66.8418112 366.086429,69.3076068 365.378418,71.3828125 C364.694821,73.2382905 363.510751,74.9106371 361.826172,76.3999023 C359.042955,78.8169066 355.502951,80.0253906 351.206055,80.0253906 C346.933572,80.0253906 343.405776,78.8169066 340.622559,76.3999023 C338.913566,74.9106371 337.705082,73.2382905 336.99707,71.3828125 C336.313473,69.7226479 335.97168,67.2568523 335.97168,63.9853516 L335.97168,43.3310547 L344.211426,43.3310547 Z M399.985352,17.1469727 L408.225098,17.1469727 L408.225098,46.2973633 C411.1548,43.6606313 414.389631,42.3422852 417.929688,42.3422852 C421.958028,42.3422852 425.180652,43.6484244 427.597656,46.2607422 C429.648448,48.5312614 430.673828,52.1567134 430.673828,57.137207 L430.673828,79 L422.434082,79 L422.434082,57.90625 C422.434082,55.0497904 421.927495,52.9807193 420.914307,51.6989746 C419.901118,50.4172299 418.271496,49.7763672 416.025391,49.7763672 C413.144517,49.7763672 411.11817,50.6674716 409.946289,52.449707 C408.798822,54.2563567 408.225098,57.3569116 408.225098,61.7514648 L408.225098,79 L399.985352,79 L399.985352,17.1469727 Z M473.59375,63.1064453 L448.032227,63.1064453 C448.251954,66.0361475 449.204093,68.3676671 450.888672,70.1010742 C452.573251,71.8100671 454.733874,72.6645508 457.370605,72.6645508 C459.421397,72.6645508 461.118157,72.1762744 462.460938,71.199707 C463.779303,70.2231396 465.280753,68.4165171 466.965332,65.7797852 L473.92334,69.6616211 C472.849116,71.4926849 471.713873,73.0612728 470.517578,74.3674316 C469.321283,75.6735905 468.039558,76.7477985 466.672363,77.5900879 C465.305169,78.4323773 463.828133,79.0488262 462.241211,79.4394531 C460.654289,79.8300801 458.933115,80.0253906 457.077637,80.0253906 C451.755344,80.0253906 447.482926,78.3164233 444.260254,74.8984375 C441.037582,71.4560375 439.42627,66.8906534 439.42627,61.2021484 C439.42627,55.5624718 440.988754,50.9970878 444.11377,47.5058594 C447.263199,44.0634594 451.437962,42.3422852 456.638184,42.3422852 C461.887233,42.3422852 466.037582,44.0146317 469.089355,47.359375 C472.116714,50.6797041 473.630371,55.2817089 473.630371,61.1655273 L473.59375,63.1064453 Z M465.134277,56.3681641 C463.986811,51.9736108 461.215842,49.7763672 456.821289,49.7763672 C455.820307,49.7763672 454.880375,49.9289536 454.001465,50.2341309 C453.122554,50.5393082 452.323002,50.9787569 451.602783,51.5524902 C450.882565,52.1262236 450.266116,52.8159139 449.753418,53.621582 C449.24072,54.4272501 448.850099,55.3427683 448.581543,56.3681641 L465.134277,56.3681641 Z M508.896484,43.3310547 L517.172852,43.3310547 L517.172852,79 L508.896484,79 L508.896484,75.2646484 C505.502913,78.4384924 501.853047,80.0253906 497.946777,80.0253906 C493.015112,80.0253906 488.938004,78.2431819 485.715332,74.6787109 C482.517074,71.0409974 480.917969,66.5000272 480.917969,61.0556641 C480.917969,55.7089576 482.517074,51.2534358 485.715332,47.6889648 C488.91359,44.1244939 492.917456,42.3422852 497.727051,42.3422852 C501.877462,42.3422852 505.600569,44.0512524 508.896484,47.4692383 L508.896484,43.3310547 Z M489.34082,61.0556641 C489.34082,64.4736499 490.256339,67.2568252 492.087402,69.4052734 C493.967295,71.5781359 496.335435,72.6645508 499.191895,72.6645508 C502.243668,72.6645508 504.709463,71.6147566 506.589355,69.5151367 C508.469248,67.3422743 509.40918,64.5835128 509.40918,61.2387695 C509.40918,57.8940262 508.469248,55.1352648 506.589355,52.9624023 C504.709463,50.8383683 502.268081,49.7763672 499.265137,49.7763672 C496.433091,49.7763672 494.064951,50.8505752 492.160645,52.9990234 C490.280752,55.1718859 489.34082,57.8574059 489.34082,61.0556641 L489.34082,61.0556641 Z M527.573242,43.3310547 L535.812988,43.3310547 L535.812988,46.5170898 C537.326668,44.9301678 538.669428,43.8437529 539.841309,43.2578125 C541.037604,42.6474579 542.453605,42.3422852 544.089355,42.3422852 C546.262218,42.3422852 548.532703,43.0502859 550.900879,44.4663086 L547.128906,52.0102539 C545.566398,50.8872014 544.040535,50.3256836 542.55127,50.3256836 C538.05906,50.3256836 535.812988,53.7192043 535.812988,60.5063477 L535.812988,79 L527.573242,79 L527.573242,43.3310547 Z M578.769531,17.1469727 L587.009277,17.1469727 L587.009277,46.2973633 C589.938979,43.6606313 593.17381,42.3422852 596.713867,42.3422852 C600.742208,42.3422852 603.964832,43.6484244 606.381836,46.2607422 C608.432627,48.5312614 609.458008,52.1567134 609.458008,57.137207 L609.458008,79 L601.218262,79 L601.218262,57.90625 C601.218262,55.0497904 600.711675,52.9807193 599.698486,51.6989746 C598.685298,50.4172299 597.055675,49.7763672 594.80957,49.7763672 C591.928697,49.7763672 589.90235,50.6674716 588.730469,52.449707 C587.583002,54.2563567 587.009277,57.3569116 587.009277,61.7514648 L587.009277,79 L578.769531,79 L578.769531,17.1469727 Z M618.210449,60.9091797 C618.210449,55.7577867 620.053693,51.3755063 623.740234,47.762207 C627.426776,44.1489077 631.918919,42.3422852 637.216797,42.3422852 C642.539089,42.3422852 647.055646,44.1611146 650.766602,47.7988281 C654.428729,51.4365416 656.259766,55.9042704 656.259766,61.2021484 C656.259766,66.5488549 654.416522,71.0287905 650.72998,74.6420898 C647.019024,78.230975 642.465847,80.0253906 637.070312,80.0253906 C631.723606,80.0253906 627.24367,78.1943542 623.630371,74.5322266 C620.017072,70.9189272 618.210449,66.377957 618.210449,60.9091797 L618.210449,60.9091797 Z M626.633301,61.0556641 C626.633301,64.620135 627.58544,67.439931 629.489746,69.5151367 C631.442881,71.6147566 634.018539,72.6645508 637.216797,72.6645508 C640.439469,72.6645508 643.015127,71.6269635 644.943848,69.5517578 C646.872568,67.4765521 647.836914,64.7055837 647.836914,61.2387695 C647.836914,57.7719553 646.872568,55.0009869 644.943848,52.9257812 C642.990713,50.8261614 640.415055,49.7763672 637.216797,49.7763672 C634.067367,49.7763672 631.516123,50.8261614 629.562988,52.9257812 C627.609854,55.0254011 626.633301,57.735335 626.633301,61.0556641 L626.633301,61.0556641 Z M663.291016,60.9091797 C663.291016,55.7577867 665.134259,51.3755063 668.820801,47.762207 C672.507343,44.1489077 676.999485,42.3422852 682.297363,42.3422852 C687.619656,42.3422852 692.136212,44.1611146 695.847168,47.7988281 C699.509296,51.4365416 701.340332,55.9042704 701.340332,61.2021484 C701.340332,66.5488549 699.497089,71.0287905 695.810547,74.6420898 C692.099591,78.230975 687.546414,80.0253906 682.150879,80.0253906 C676.804172,80.0253906 672.324237,78.1943542 668.710938,74.5322266 C665.097638,70.9189272 663.291016,66.377957 663.291016,60.9091797 L663.291016,60.9091797 Z M671.713867,61.0556641 C671.713867,64.620135 672.666006,67.439931 674.570312,69.5151367 C676.523447,71.6147566 679.099105,72.6645508 682.297363,72.6645508 C685.520036,72.6645508 688.095693,71.6269635 690.024414,69.5517578 C691.953135,67.4765521 692.91748,64.7055837 692.91748,61.2387695 C692.91748,57.7719553 691.953135,55.0009869 690.024414,52.9257812 C688.071279,50.8261614 685.495621,49.7763672 682.297363,49.7763672 C679.147933,49.7763672 676.596689,50.8261614 674.643555,52.9257812 C672.69042,55.0254011 671.713867,57.735335 671.713867,61.0556641 L671.713867,61.0556641 Z M718.588867,51.0214844 L718.588867,79 L710.3125,79 L710.3125,51.0214844 L707.382812,51.0214844 L707.382812,43.3310547 L710.3125,43.3310547 L710.3125,29.5615234 C710.3125,25.0693135 711.093742,21.8955171 712.65625,20.0400391 C714.804698,17.4521355 717.929667,16.1582031 722.03125,16.1582031 C723.496101,16.1582031 725.339344,16.5854449 727.561035,17.4399414 L727.561035,25.862793 L726.71875,25.4233398 C724.936515,24.520015 723.471685,24.0683594 722.324219,24.0683594 C720.859368,24.0683594 719.870608,24.5932565 719.35791,25.6430664 C718.845212,26.6684622 718.588867,28.6459814 718.588867,31.5756836 L718.588867,43.3310547 L727.561035,43.3310547 L727.561035,51.0214844 L718.588867,51.0214844 Z M740.561523,17.1469727 L740.561523,47.4692383 C743.857438,44.0512524 747.592753,42.3422852 751.767578,42.3422852 C756.577172,42.3422852 760.581039,44.1367008 763.779297,47.7255859 C766.977555,51.2900569 768.57666,55.7333718 768.57666,61.0556641 C768.57666,66.5488556 766.965348,71.0898258 763.742676,74.6787109 C760.544418,78.2431819 756.503931,80.0253906 751.621094,80.0253906 C747.495097,80.0253906 743.80861,78.4384924 740.561523,75.2646484 L740.561523,79 L732.321777,79 L732.321777,17.1469727 L740.561523,17.1469727 Z M760.153809,61.421875 C760.153809,58.0038892 759.226083,55.2207139 757.370605,53.0722656 C755.490713,50.874989 753.13478,49.7763672 750.302734,49.7763672 C747.275375,49.7763672 744.80958,50.8383683 742.905273,52.9624023 C741.025381,55.0620222 740.085449,57.7963699 740.085449,61.1655273 C740.085449,64.6323416 741.013174,67.4033099 742.868652,69.4785156 C744.72413,71.6025497 747.165512,72.6645508 750.192871,72.6645508 C753.049331,72.6645508 755.417471,71.6025497 757.297363,69.4785156 C759.20167,67.3300674 760.153809,64.6445474 760.153809,61.421875 L760.153809,61.421875 Z M809.775391,63.1064453 L784.213867,63.1064453 C784.433595,66.0361475 785.385734,68.3676671 787.070312,70.1010742 C788.754891,71.8100671 790.915514,72.6645508 793.552246,72.6645508 C795.603038,72.6645508 797.299798,72.1762744 798.642578,71.199707 C799.960944,70.2231396 801.462394,68.4165171 803.146973,65.7797852 L810.10498,69.6616211 C809.030756,71.4926849 807.895514,73.0612728 806.699219,74.3674316 C805.502924,75.6735905 804.221198,76.7477985 802.854004,77.5900879 C801.48681,78.4323773 800.009774,79.0488262 798.422852,79.4394531 C796.83593,79.8300801 795.114755,80.0253906 793.259277,80.0253906 C787.936985,80.0253906 783.664567,78.3164233 780.441895,74.8984375 C777.219222,71.4560375 775.60791,66.8906534 775.60791,61.2021484 C775.60791,55.5624718 777.170395,50.9970878 780.29541,47.5058594 C783.44484,44.0634594 787.619603,42.3422852 792.819824,42.3422852 C798.068874,42.3422852 802.219223,44.0146317 805.270996,47.359375 C808.298355,50.6797041 809.812012,55.2817089 809.812012,61.1655273 L809.775391,63.1064453 Z M801.315918,56.3681641 C800.168451,51.9736108 797.397483,49.7763672 793.00293,49.7763672 C792.001948,49.7763672 791.062016,49.9289536 790.183105,50.2341309 C789.304195,50.5393082 788.504642,50.9787569 787.784424,51.5524902 C787.064205,52.1262236 786.447756,52.8159139 785.935059,53.621582 C785.422361,54.4272501 785.03174,55.3427683 784.763184,56.3681641 L801.315918,56.3681641 Z M845.078125,43.3310547 L853.354492,43.3310547 L853.354492,79 L845.078125,79 L845.078125,75.2646484 C841.684553,78.4384924 838.034688,80.0253906 834.128418,80.0253906 C829.196753,80.0253906 825.119645,78.2431819 821.896973,74.6787109 C818.698714,71.0409974 817.099609,66.5000272 817.099609,61.0556641 C817.099609,55.7089576 818.698714,51.2534358 821.896973,47.6889648 C825.095231,44.1244939 829.099097,42.3422852 833.908691,42.3422852 C838.059103,42.3422852 841.78221,44.0512524 845.078125,47.4692383 L845.078125,43.3310547 Z M825.522461,61.0556641 C825.522461,64.4736499 826.437979,67.2568252 828.269043,69.4052734 C830.148935,71.5781359 832.517076,72.6645508 835.373535,72.6645508 C838.425308,72.6645508 840.891104,71.6147566 842.770996,69.5151367 C844.650888,67.3422743 845.59082,64.5835128 845.59082,61.2387695 C845.59082,57.8940262 844.650888,55.1352648 842.770996,52.9624023 C840.891104,50.8383683 838.449722,49.7763672 835.446777,49.7763672 C832.614732,49.7763672 830.246592,50.8505752 828.342285,52.9990234 C826.462393,55.1718859 825.522461,57.8574059 825.522461,61.0556641 L825.522461,61.0556641 Z M872.250977,51.0214844 L872.250977,79 L864.01123,79 L864.01123,51.0214844 L860.495605,51.0214844 L860.495605,43.3310547 L864.01123,43.3310547 L864.01123,30.2573242 L872.250977,30.2573242 L872.250977,43.3310547 L878.659668,43.3310547 L878.659668,51.0214844 L872.250977,51.0214844 Z M904.990234,49.4101562 L898.178711,53.0356445 C897.104487,50.8383679 895.773934,49.7397461 894.187012,49.7397461 C893.430172,49.7397461 892.783206,49.9899877 892.246094,50.4904785 C891.708982,50.9909693 891.44043,51.631832 891.44043,52.4130859 C891.44043,53.7802803 893.027328,55.1352472 896.201172,56.4780273 C900.571311,58.3579196 903.513176,60.0913007 905.026855,61.6782227 C906.540535,63.2651447 907.297363,65.4013538 907.297363,68.0869141 C907.297363,71.5293141 906.027845,74.4101447 903.48877,76.7294922 C901.022937,78.9267688 898.044451,80.0253906 894.553223,80.0253906 C888.571747,80.0253906 884.33595,77.1079393 881.845703,71.2729492 L888.876953,68.0136719 C889.853521,69.7226648 890.598142,70.8090797 891.11084,71.2729492 C892.111821,72.2006882 893.308099,72.6645508 894.699707,72.6645508 C897.482924,72.6645508 898.874512,71.3950322 898.874512,68.855957 C898.874512,67.391106 897.800304,66.0239321 895.651855,64.7543945 C894.821773,64.3393534 893.991703,63.9365254 893.161621,63.5458984 C892.331539,63.1552715 891.489262,62.7524435 890.634766,62.3374023 C888.242176,61.1655215 886.557622,59.9936582 885.581055,58.8217773 C884.335931,57.3325121 883.713379,55.4160273 883.713379,53.0722656 C883.713379,49.9716642 884.77538,47.4082133 886.899414,45.3818359 C889.072276,43.3554586 891.708969,42.3422852 894.80957,42.3422852 C899.375023,42.3422852 902.768544,44.6982186 904.990234,49.4101562 L904.990234,49.4101562 Z M919.785156,68.4165039 L927.109375,71.2729492 L916.672363,92.1835938 L911.105957,89.8764648 L919.785156,68.4165039 Z M53.6962891,131.021484 L53.6962891,159 L45.456543,159 L45.456543,131.021484 L41.940918,131.021484 L41.940918,123.331055 L45.456543,123.331055 L45.456543,110.257324 L53.6962891,110.257324 L53.6962891,123.331055 L60.1049805,123.331055 L60.1049805,131.021484 L53.6962891,131.021484 Z M65.7080078,97.1469727 L73.9477539,97.1469727 L73.9477539,126.297363 C76.8774561,123.660631 80.112287,122.342285 83.6523438,122.342285 C87.6806842,122.342285 90.9033082,123.648424 93.3203125,126.260742 C95.371104,128.531261 96.3964844,132.156713 96.3964844,137.137207 L96.3964844,159 L88.1567383,159 L88.1567383,137.90625 C88.1567383,135.04979 87.6501516,132.980719 86.6369629,131.698975 C85.6237742,130.41723 83.9941519,129.776367 81.7480469,129.776367 C78.8671731,129.776367 76.8408262,130.667472 75.6689453,132.449707 C74.5214786,134.256357 73.9477539,137.356912 73.9477539,141.751465 L73.9477539,159 L65.7080078,159 L65.7080078,97.1469727 Z M115.073242,123.331055 L115.073242,159 L106.833496,159 L106.833496,123.331055 L115.073242,123.331055 Z M105.588379,108.499512 C105.588379,107.059075 106.113276,105.81397 107.163086,104.76416 C108.212896,103.71435 109.470208,103.189453 110.935059,103.189453 C112.424324,103.189453 113.693842,103.71435 114.743652,104.76416 C115.793462,105.789556 116.318359,107.046868 116.318359,108.536133 C116.318359,110.025398 115.793462,111.294917 114.743652,112.344727 C113.718257,113.394536 112.460945,113.919434 110.97168,113.919434 C109.482414,113.919434 108.212896,113.394536 107.163086,112.344727 C106.113276,111.294917 105.588379,110.013191 105.588379,108.499512 L105.588379,108.499512 Z M125.510254,123.331055 L133.786621,123.331055 L133.786621,126.626953 C136.667495,123.770494 139.914533,122.342285 143.527832,122.342285 C147.678243,122.342285 150.913074,123.648424 153.232422,126.260742 C155.234385,128.482433 156.235352,132.107885 156.235352,137.137207 L156.235352,159 L147.958984,159 L147.958984,139.078125 C147.958984,135.562482 147.470708,133.133307 146.494141,131.790527 C145.541987,130.423333 143.808606,129.739746 141.293945,129.739746 C138.559557,129.739746 136.618658,130.643057 135.471191,132.449707 C134.348139,134.231943 133.786621,137.344704 133.786621,141.788086 L133.786621,159 L125.510254,159 L125.510254,123.331055 Z M174.875488,97.1469727 L174.875488,134.866699 L186.484375,123.331055 L197.543945,123.331055 L182.053223,138.309082 L198.679199,159 L187.98584,159 L176.193848,143.94873 L174.875488,145.26709 L174.875488,159 L166.635742,159 L166.635742,97.1469727 L174.875488,97.1469727 Z M225.449219,140.90918 C225.449219,135.757787 227.292462,131.375506 230.979004,127.762207 C234.665546,124.148908 239.157688,122.342285 244.455566,122.342285 C249.777859,122.342285 254.294415,124.161115 258.005371,127.798828 C261.667499,131.436542 263.498535,135.90427 263.498535,141.202148 C263.498535,146.548855 261.655292,151.028791 257.96875,154.64209 C254.257794,158.230975 249.704617,160.025391 244.309082,160.025391 C238.962376,160.025391 234.48244,158.194354 230.869141,154.532227 C227.255841,150.918927 225.449219,146.377957 225.449219,140.90918 L225.449219,140.90918 Z M233.87207,141.055664 C233.87207,144.620135 234.824209,147.439931 236.728516,149.515137 C238.68165,151.614757 241.257308,152.664551 244.455566,152.664551 C247.678239,152.664551 250.253897,151.626964 252.182617,149.551758 C254.111338,147.476552 255.075684,144.705584 255.075684,141.23877 C255.075684,137.771955 254.111338,135.000987 252.182617,132.925781 C250.229482,130.826161 247.653825,129.776367 244.455566,129.776367 C241.306137,129.776367 238.754893,130.826161 236.801758,132.925781 C234.848623,135.025401 233.87207,137.735335 233.87207,141.055664 L233.87207,141.055664 Z M280.74707,131.021484 L280.74707,159 L272.470703,159 L272.470703,131.021484 L269.541016,131.021484 L269.541016,123.331055 L272.470703,123.331055 L272.470703,109.561523 C272.470703,105.069313 273.251945,101.895517 274.814453,100.040039 C276.962901,97.4521355 280.08787,96.1582031 284.189453,96.1582031 C285.654304,96.1582031 287.497547,96.5854449 289.719238,97.4399414 L289.719238,105.862793 L288.876953,105.42334 C287.094718,104.520015 285.629889,104.068359 284.482422,104.068359 C283.017571,104.068359 282.028811,104.593256 281.516113,105.643066 C281.003415,106.668462 280.74707,108.645981 280.74707,111.575684 L280.74707,123.331055 L289.719238,123.331055 L289.719238,131.021484 L280.74707,131.021484 Z M539.328613,148.416504 L546.652832,151.272949 L536.21582,172.183594 L530.649414,169.876465 L539.328613,148.416504 Z M580.527344,123.331055 L588.803711,123.331055 L588.803711,126.626953 C591.684585,123.770494 594.931623,122.342285 598.544922,122.342285 C602.695333,122.342285 605.930164,123.648424 608.249512,126.260742 C610.251475,128.482433 611.252441,132.107885 611.252441,137.137207 L611.252441,159 L602.976074,159 L602.976074,139.078125 C602.976074,135.562482 602.487798,133.133307 601.51123,131.790527 C600.559077,130.423333 598.825696,129.739746 596.311035,129.739746 C593.576646,129.739746 591.635748,130.643057 590.488281,132.449707 C589.365229,134.231943 588.803711,137.344704 588.803711,141.788086 L588.803711,159 L580.527344,159 L580.527344,123.331055 Z M619.968262,140.90918 C619.968262,135.757787 621.811505,131.375506 625.498047,127.762207 C629.184589,124.148908 633.676731,122.342285 638.974609,122.342285 C644.296902,122.342285 648.813458,124.161115 652.524414,127.798828 C656.186542,131.436542 658.017578,135.90427 658.017578,141.202148 C658.017578,146.548855 656.174335,151.028791 652.487793,154.64209 C648.776837,158.230975 644.22366,160.025391 638.828125,160.025391 C633.481419,160.025391 629.001483,158.194354 625.388184,154.532227 C621.774884,150.918927 619.968262,146.377957 619.968262,140.90918 L619.968262,140.90918 Z M628.391113,141.055664 C628.391113,144.620135 629.343252,147.439931 631.247559,149.515137 C633.200693,151.614757 635.776351,152.664551 638.974609,152.664551 C642.197282,152.664551 644.77294,151.626964 646.70166,149.551758 C648.630381,147.476552 649.594727,144.705584 649.594727,141.23877 C649.594727,137.771955 648.630381,135.000987 646.70166,132.925781 C644.748525,130.826161 642.172868,129.776367 638.974609,129.776367 C635.82518,129.776367 633.273936,130.826161 631.320801,132.925781 C629.367666,135.025401 628.391113,137.735335 628.391113,141.055664 L628.391113,141.055664 Z M675.229492,131.021484 L675.229492,159 L666.989746,159 L666.989746,131.021484 L663.474121,131.021484 L663.474121,123.331055 L666.989746,123.331055 L666.989746,110.257324 L675.229492,110.257324 L675.229492,123.331055 L681.638184,123.331055 L681.638184,131.021484 L675.229492,131.021484 Z" id="quote-outline" fill="#F2F2F5"></path>
                    <g id="zebras-outline" transform="translate(711.000000, 96.000000)">
                        <mask id="mask-2" fill="white">
                            <use xlink:href="#path-1"></use>
                        </mask>
                        <use id="Mask" fill="#F2F2F5" xlink:href="#path-1"></use>
                        <g id="Group" mask="url(#mask-2)">
                            <g transform="translate(110.000000, 31.500000) rotate(-20.000000) translate(-110.000000, -31.500000) translate(-15.000000, -54.000000)">
                                <rect id="Rectangle-34" fill="#F5F5F5" x="-9.16600129e-13" y="1" width="7" height="170"></rect>
                                <rect id="white" fill="#4C4C4C" x="7" y="1" width="3" height="170"></rect>
                                <rect id="Rectangle-34-Copy-2" fill="#F5F5F5" x="10" y="1" width="7" height="170"></rect>
                                <rect id="white" fill="#4C4C4C" x="17" y="1" width="3" height="170"></rect>
                                <rect id="Rectangle-34-Copy-4" fill="#F5F5F5" x="20" y="1" width="7" height="170"></rect>
                                <rect id="white" fill="#4C4C4C" x="27" y="1" width="3" height="170"></rect>
                                <rect id="Rectangle-34-Copy-6" fill="#F5F5F5" x="30" y="1" width="7" height="170"></rect>
                                <rect id="white" fill="#4C4C4C" x="37" y="1" width="3" height="170"></rect>
                                <rect id="Rectangle-34-Copy-8" fill="#F5F5F5" x="40" y="1" width="7" height="170"></rect>
                                <rect id="white" fill="#4C4C4C" x="47" y="-4.97379915e-14" width="3" height="170"></rect>
                                <rect id="Rectangle-34-Copy-10" fill="#F5F5F5" x="50" y="-7.10542736e-14" width="7" height="170"></rect>
                                <rect id="white" fill="#4C4C4C" x="57" y="2.13162821e-14" width="3" height="170"></rect>
                                <rect id="Rectangle-34-Copy-12" fill="#F5F5F5" x="60" y="9.9475983e-14" width="7" height="170"></rect>
                                <rect id="white" fill="#4C4C4C" x="67" y="-3.26849658e-13" width="3" height="170"></rect>
                                <rect id="Rectangle-34-Copy-14" fill="#F5F5F5" x="70" y="-1.42108547e-13" width="7" height="170"></rect>
                                <rect id="white" fill="#4C4C4C" x="77" y="-4.97379915e-14" width="3" height="170"></rect>
                                <rect id="Rectangle-34-Copy-17" fill="#F5F5F5" x="80" y="-2.84217094e-13" width="7" height="170"></rect>
                                <rect id="white" fill="#4C4C4C" x="87" y="4.26325641e-13" width="3" height="170"></rect>
                                <rect id="Rectangle-34-Copy-19" fill="#F5F5F5" x="90" y="-2.13162821e-13" width="7" height="170"></rect>
                                <rect id="white" fill="#4C4C4C" x="97" y="-1.24344979e-13" width="3" height="170"></rect>
                                <rect id="Rectangle-34-Copy-21" fill="#F5F5F5" x="100" y="-4.26325641e-14" width="7" height="170"></rect>
                                <rect id="white" fill="#4C4C4C" x="107" y="3.44613227e-13" width="3" height="170"></rect>
                                <rect id="Rectangle-34-Copy-23" fill="#F5F5F5" x="110" y="-1.77635684e-13" width="7" height="170"></rect>
                                <rect id="white" fill="#4C4C4C" x="117" y="1.0658141e-13" width="3" height="170"></rect>
                                <rect id="Rectangle-34-Copy-25" fill="#F5F5F5" x="120" y="-3.19744231e-13" width="7" height="170"></rect>
                                <rect id="white" fill="#4C4C4C" x="127" y="7.81597009e-14" width="3" height="170"></rect>
                                <rect id="Rectangle-34-Copy-27" fill="#F5F5F5" x="130" y="-2.55795385e-13" width="7" height="170"></rect>
                                <rect id="white" fill="#4C4C4C" x="137" y="2.48689958e-13" width="3" height="170"></rect>
                                <rect id="Rectangle-34-Copy-29" fill="#F5F5F5" x="140" y="-2.84217094e-13" width="7" height="170"></rect>
                                <rect id="white" fill="#4C4C4C" x="147" y="0" width="3" height="170"></rect>
                                <rect id="Rectangle-34-Copy-39" fill="#F5F5F5" x="150" y="-1.13686838e-13" width="7" height="170"></rect>
                                <rect id="white" fill="#4C4C4C" x="157" y="-2.84217094e-14" width="3" height="170"></rect>
                                <rect id="Rectangle-34-Copy-37" fill="#F5F5F5" x="160" y="-2.55795385e-13" width="7" height="170"></rect>
                                <rect id="white" fill="#4C4C4C" x="167" y="-7.10542736e-14" width="3" height="170"></rect>
                                <rect id="Rectangle-34-Copy-35" fill="#F5F5F5" x="170" y="-3.90798505e-13" width="7" height="170"></rect>
                                <rect id="white" fill="#4C4C4C" x="177" y="-9.9475983e-14" width="3" height="170"></rect>
                                <rect id="Rectangle-34-Copy-33" fill="#F5F5F5" x="180" y="1.98951966e-13" width="7" height="170"></rect>
                                <rect id="white" fill="#4C4C4C" x="187" y="1.70530257e-13" width="3" height="170"></rect>
                                <rect id="Rectangle-34-Copy-31" fill="#F5F5F5" x="190" y="-4.97379915e-14" width="7" height="170"></rect>
                                <rect id="white" fill="#4C4C4C" x="197" y="-7.10542736e-14" width="3" height="170"></rect>
                                <rect id="Rectangle-34-Copy-45" fill="#F5F5F5" x="200" y="1.20792265e-13" width="7" height="170"></rect>
                                <rect id="white" fill="#4C4C4C" x="207" y="9.9475983e-14" width="3" height="170"></rect>
                                <rect id="Rectangle-34-Copy-43" fill="#F5F5F5" x="210" y="-1.20792265e-13" width="7" height="170"></rect>
                                <rect id="white" fill="#4C4C4C" x="217" y="1.70530257e-13" width="3" height="170"></rect>
                                <rect id="Rectangle-34-Copy-41" fill="#F5F5F5" x="220" y="-2.62900812e-13" width="7" height="170"></rect>
                                <rect id="white" fill="#4C4C4C" x="227" y="2.84217094e-14" width="3" height="170"></rect>
                                <rect id="Rectangle-34-Copy-49" fill="#F5F5F5" x="230" y="-1.91846539e-13" width="7" height="170"></rect>
                                <rect id="white" fill="#4C4C4C" x="237" y="-1.13686838e-13" width="3" height="170"></rect>
                                <rect id="Rectangle-34-Copy-47" fill="#F5F5F5" x="240" y="-2.27373675e-13" width="7" height="170"></rect>
                                <rect id="white" fill="#4C4C4C" x="247" y="1.70530257e-13" width="3" height="170"></rect>
                            </g>
                        </g>
                    </g>
                    <g id="horses-outline" transform="translate(317.000000, 97.000000)" fill="#603B25">
                        <path d="M0.624511719,0.146972656 L8.86425781,0.146972656 L8.86425781,29.2973633 C11.79396,26.6606313 15.0287909,25.3422852 18.5688477,25.3422852 C22.5971881,25.3422852 25.8198121,26.6484244 28.2368164,29.2607422 C30.2876079,31.5312614 31.3129883,35.1567134 31.3129883,40.137207 L31.3129883,62 L23.0732422,62 L23.0732422,40.90625 C23.0732422,38.0497904 22.5666555,35.9807193 21.5534668,34.6989746 C20.5402781,33.4172299 18.9106558,32.7763672 16.6645508,32.7763672 C13.783677,32.7763672 11.7573301,33.6674716 10.5854492,35.449707 C9.43798254,37.2563567 8.86425781,40.3569116 8.86425781,44.7514648 L8.86425781,62 L0.624511719,62 L0.624511719,0.146972656 Z" id="H"></path>
                        <path d="M45.5952148,30.762207 C49.2817567,27.1489077 53.7738993,25.3422852 59.0717773,25.3422852 C64.3940696,25.3422852 68.910626,27.1611146 72.621582,30.7988281 C76.2837097,34.4365416 78.1147461,38.9042704 78.1147461,44.2021484 C78.1147461,49.5488549 76.2715028,54.0287905 72.5849609,57.6420898 C68.8740049,61.230975 64.3208278,63.0253906 58.925293,63.0253906 C53.5785865,63.0253906 49.0986509,61.1943542 45.4853516,57.5322266 C41.8720522,53.9189272 40.0654297,49.377957 40.0654297,43.9091797 C40.0654297,38.7577867 41.908673,34.3755063 45.5952148,30.762207 Z M48.4882812,44.0556641 C48.4882812,47.620135 49.4404202,50.439931 51.3447266,52.5151367 C53.2978613,54.6147566 55.8735192,55.6645508 59.0717773,55.6645508 C62.2944497,55.6645508 64.8701075,54.6269635 66.7988281,52.5517578 C68.7275487,50.4765521 69.6918945,47.7055837 69.6918945,44.2387695 C69.6918945,40.7719553 68.7275487,38.0009869 66.7988281,35.9257812 C64.8456934,33.8261614 62.2700355,32.7763672 59.0717773,32.7763672 C55.9223475,32.7763672 53.3711035,33.8261614 51.4179688,35.9257812 C49.464834,38.0254011 48.4882812,40.735335 48.4882812,44.0556641 Z" id="Combined-Shape"></path>
                        <path d="M86.8305664,26.3310547 L95.0703125,26.3310547 L95.0703125,29.5170898 C96.5839919,27.9301678 97.926752,26.8437529 99.0986328,26.2578125 C100.294928,25.6474579 101.710929,25.3422852 103.34668,25.3422852 C105.519542,25.3422852 107.790027,26.0502859 110.158203,27.4663086 L106.38623,35.0102539 C104.823723,33.8872014 103.297859,33.3256836 101.808594,33.3256836 C97.3163838,33.3256836 95.0703125,36.7192043 95.0703125,43.5063477 L95.0703125,62 L86.8305664,62 L86.8305664,26.3310547 Z" id="R"></path>
                        <path d="M135.609863,32.4101562 L128.79834,36.0356445 C127.724116,33.8383679 126.393563,32.7397461 124.806641,32.7397461 C124.049801,32.7397461 123.402835,32.9899877 122.865723,33.4904785 C122.328611,33.9909693 122.060059,34.631832 122.060059,35.4130859 C122.060059,36.7802803 123.646957,38.1352472 126.820801,39.4780273 C131.19094,41.3579196 134.132805,43.0913007 135.646484,44.6782227 C137.160164,46.2651447 137.916992,48.4013538 137.916992,51.0869141 C137.916992,54.5293141 136.647474,57.4101447 134.108398,59.7294922 C131.642566,61.9267688 128.66408,63.0253906 125.172852,63.0253906 C119.191376,63.0253906 114.955579,60.1079393 112.465332,54.2729492 L119.496582,51.0136719 C120.473149,52.7226648 121.217771,53.8090797 121.730469,54.2729492 C122.73145,55.2006882 123.927727,55.6645508 125.319336,55.6645508 C128.102553,55.6645508 129.494141,54.3950322 129.494141,51.855957 C129.494141,50.391106 128.419933,49.0239321 126.271484,47.7543945 C125.441402,47.3393534 124.611332,46.9365254 123.78125,46.5458984 C122.951168,46.1552715 122.108891,45.7524435 121.254395,45.3374023 C118.861804,44.1655215 117.177251,42.9936582 116.200684,41.8217773 C114.95556,40.3325121 114.333008,38.4160273 114.333008,36.0722656 C114.333008,32.9716642 115.395009,30.4082133 117.519043,28.3818359 C119.691905,26.3554586 122.328598,25.3422852 125.429199,25.3422852 C129.994652,25.3422852 133.388172,27.6982186 135.609863,32.4101562 L135.609863,32.4101562 Z" id="S"></path>
                        <path d="M177.797363,46.1064453 L152.23584,46.1064453 C152.455568,49.0361475 153.407706,51.3676671 155.092285,53.1010742 C156.776864,54.8100671 158.937487,55.6645508 161.574219,55.6645508 C163.62501,55.6645508 165.321771,55.1762744 166.664551,54.199707 C167.982917,53.2231396 169.484367,51.4165171 171.168945,48.7797852 L178.126953,52.6616211 C177.052729,54.4926849 175.917486,56.0612728 174.721191,57.3674316 C173.524896,58.6735905 172.243171,59.7477985 170.875977,60.5900879 C169.508782,61.4323773 168.031746,62.0488262 166.444824,62.4394531 C164.857902,62.8300801 163.136728,63.0253906 161.28125,63.0253906 C155.958958,63.0253906 151.68654,61.3164233 148.463867,57.8984375 C145.241195,54.4560375 143.629883,49.8906534 143.629883,44.2021484 C143.629883,38.5624718 145.192367,33.9970878 148.317383,30.5058594 C151.466813,27.0634594 155.641576,25.3422852 160.841797,25.3422852 C166.090847,25.3422852 170.241196,27.0146317 173.292969,30.359375 C176.320328,33.6797041 177.833984,38.2817089 177.833984,44.1655273 L177.797363,46.1064453 Z M169.337891,39.3681641 C168.190424,34.9736108 165.419456,32.7763672 161.024902,32.7763672 C160.023921,32.7763672 159.083989,32.9289536 158.205078,33.2341309 C157.326167,33.5393082 156.526615,33.9787569 155.806396,34.5524902 C155.086178,35.1262236 154.469729,35.8159139 153.957031,36.621582 C153.444333,37.4272501 153.053712,38.3427683 152.785156,39.3681641 L169.337891,39.3681641 Z" id="Combined-Shape"></path>
                        <path d="M207.533691,32.4101562 L200.722168,36.0356445 C199.647944,33.8383679 198.317391,32.7397461 196.730469,32.7397461 C195.973629,32.7397461 195.326663,32.9899877 194.789551,33.4904785 C194.252439,33.9909693 193.983887,34.631832 193.983887,35.4130859 C193.983887,36.7802803 195.570785,38.1352472 198.744629,39.4780273 C203.114768,41.3579196 206.056633,43.0913007 207.570312,44.6782227 C209.083992,46.2651447 209.84082,48.4013538 209.84082,51.0869141 C209.84082,54.5293141 208.571302,57.4101447 206.032227,59.7294922 C203.566394,61.9267688 200.587908,63.0253906 197.09668,63.0253906 C191.115204,63.0253906 186.879407,60.1079393 184.38916,54.2729492 L191.42041,51.0136719 C192.396978,52.7226648 193.141599,53.8090797 193.654297,54.2729492 C194.655278,55.2006882 195.851556,55.6645508 197.243164,55.6645508 C200.026381,55.6645508 201.417969,54.3950322 201.417969,51.855957 C201.417969,50.391106 200.343761,49.0239321 198.195312,47.7543945 C197.36523,47.3393534 196.53516,46.9365254 195.705078,46.5458984 C194.874996,46.1552715 194.032719,45.7524435 193.178223,45.3374023 C190.785633,44.1655215 189.101079,42.9936582 188.124512,41.8217773 C186.879388,40.3325121 186.256836,38.4160273 186.256836,36.0722656 C186.256836,32.9716642 187.318837,30.4082133 189.442871,28.3818359 C191.615734,26.3554586 194.252426,25.3422852 197.353027,25.3422852 C201.91848,25.3422852 205.312001,27.6982186 207.533691,32.4101562 L207.533691,32.4101562 Z" id="S"></path>
                    </g>
                    <path d="M11.9647168,5.89474397 C12.1585381,6.35139093 11.8096598,7.95755552 11.456194,7.95726878 C10.1655233,7.95622173 7.4375665,28.85756 15.5116492,28.8575601 C23.7694505,28.8575603 20.7060637,7.95726856 19.4656065,7.95726856 C19.1942564,7.95726856 18.9347326,6.33701831 19.000435,5.89474405 C19.0585814,5.50333241 19.0779636,5.66642059 21.2099997,3.05700958 C21.5015207,2.70021531 22.0725595,5.96226301 22.0725595,5.96226301 C22.0725595,5.96226301 29.3892647,33.0000001 15.5116492,33 C1.63403375,32.9999999 8.90233804,5.60118524 8.90233804,5.60118524 C8.90233804,5.60118524 9.53772792,2.708642 9.79412733,3.02403745 C11.8096598,5.50333244 11.8430367,5.60806288 11.9647168,5.89474397 Z M8.64516129,15.0652174 C8.79659421,15.0652174 8.91935484,14.7002321 8.91935484,14.25 C8.91935484,13.7997679 8.79659421,13.4347826 8.64516129,13.4347826 C8.49372838,13.4347826 8.37096774,13.7997679 8.37096774,14.25 C8.37096774,14.7002321 8.49372838,15.0652174 8.64516129,15.0652174 Z M8.64516129,21.2608696 C8.79659421,21.2608696 8.91935484,20.8958843 8.91935484,20.4456522 C8.91935484,19.99542 8.79659421,19.6304348 8.64516129,19.6304348 C8.49372838,19.6304348 8.37096774,19.99542 8.37096774,20.4456522 C8.37096774,20.8958843 8.49372838,21.2608696 8.64516129,21.2608696 Z M9.74193548,27.4565217 C9.8933684,27.4565217 10.016129,27.0915365 10.016129,26.6413043 C10.016129,26.1910722 9.8933684,25.826087 9.74193548,25.826087 C9.59050257,25.826087 9.46774194,26.1910722 9.46774194,26.6413043 C9.46774194,27.0915365 9.59050257,27.4565217 9.74193548,27.4565217 Z M22.3548387,15.0652174 C22.5062716,15.0652174 22.6290323,14.7002321 22.6290323,14.25 C22.6290323,13.7997679 22.5062716,13.4347826 22.3548387,13.4347826 C22.2034058,13.4347826 22.0806452,13.7997679 22.0806452,14.25 C22.0806452,14.7002321 22.2034058,15.0652174 22.3548387,15.0652174 Z M22.6290323,21.2608696 C22.7804652,21.2608696 22.9032258,20.8958843 22.9032258,20.4456522 C22.9032258,19.99542 22.7804652,19.6304348 22.6290323,19.6304348 C22.4775993,19.6304348 22.3548387,19.99542 22.3548387,20.4456522 C22.3548387,20.8958843 22.4775993,21.2608696 22.6290323,21.2608696 Z M21.2580645,27.4565217 C21.4094974,27.4565217 21.5322581,27.0915365 21.5322581,26.6413043 C21.5322581,26.1910722 21.4094974,25.826087 21.2580645,25.826087 C21.1066316,25.826087 20.983871,26.1910722 20.983871,26.6413043 C20.983871,27.0915365 21.1066316,27.4565217 21.2580645,27.4565217 Z" id="hoof-startQuote" fill="#FFFFFF" transform="translate(15.500000, 18.000000) scale(1, -1) rotate(-330.000000) translate(-15.500000, -18.000000) "></path>
                </g>
            </g>
        </g>
    </g>
</svg>
