<svg viewBox="0 0 1024 768" version="1.1" xmlns="http://www.w3.org/2000/svg" xmlns:xlink="http://www.w3.org/1999/xlink">
    <defs>
        <ellipse id="path-1" cx="51.1362445" cy="51.2296522" rx="51.1362445" ry="51.2296522"></ellipse>
        <mask id="mask-2" maskContentUnits="userSpaceOnUse" maskUnits="objectBoundingBox" x="-2.98080009" y="-2.98080009" width="108.234089" height="108.420905">
            <rect x="-2.98080009" y="-2.98080009" width="108.234089" height="108.420905" fill="white"></rect>
            <use xlink:href="#path-1" fill="black"></use>
        </mask>
        <ellipse id="path-3" cx="50.324558" cy="50.4164831" rx="24.3505926" ry="24.3950725"></ellipse>
        <mask id="mask-4" maskContentUnits="userSpaceOnUse" maskUnits="objectBoundingBox" x="-2.98080009" y="-2.98080009" width="54.6627854" height="54.7517451">
            <rect x="22.9931653" y="23.0406105" width="54.6627854" height="54.7517451" fill="white"></rect>
            <use xlink:href="#path-3" fill="black"></use>
        </mask>
    </defs>
    <g id="Logos" stroke="none" stroke-width="1" fill="none" fill-rule="evenodd">
        <g id="hoof-steth-title">
            <g id="Group" transform="translate(54.000000, 25.000000)">
                <path d="M0,422.597561 L31.3315894,422.597561 L31.3315894,488.43137 C35.6014775,483.261149 39.9290018,479.785665 44.3142922,478.004811 C48.6995827,476.223957 53.8349115,475.333544 59.7204329,475.333544 C70.9144637,475.333544 79.3675612,478.406906 85.079979,484.553724 C90.7923968,490.700541 93.6485629,499.001493 93.6485629,509.456827 L93.6485629,565.639606 L62.3169735,565.639606 L62.3169735,521.003594 C62.3169735,516.522737 61.9707715,512.903637 61.2783572,510.146186 C60.585943,507.388735 59.4319365,505.263232 57.8163032,503.769613 C55.046646,501.356844 51.7000272,500.150477 47.7763463,500.150477 C42.4678369,500.150477 38.399964,501.730243 35.5726057,504.889822 C32.7452474,508.049401 31.3315894,512.558914 31.3315894,518.418497 L31.3315894,565.639606 L0,565.639606 L0,422.597561 Z M144.540758,521.003594 C144.540758,523.990833 145.088911,526.719519 146.185234,529.189735 C147.281556,531.659952 148.724064,533.814178 150.512801,535.652479 C152.301538,537.490779 154.43645,538.92693 156.917601,539.960974 C159.398752,540.995018 162.024117,541.512032 164.793774,541.512032 C167.563431,541.512032 170.188796,540.995018 172.669947,539.960974 C175.151098,538.92693 177.28601,537.490779 179.074747,535.652479 C180.863484,533.814178 182.305992,531.659952 183.402315,529.189735 C184.498638,526.719519 185.046791,524.048279 185.046791,521.175934 C185.046791,518.418483 184.498638,515.804689 183.402315,513.334473 C182.305992,510.864256 180.863484,508.71003 179.074747,506.87173 C177.28601,505.033429 175.151098,503.597278 172.669947,502.563234 C170.188796,501.52919 167.563431,501.012176 164.793774,501.012176 C162.024117,501.012176 159.398752,501.52919 156.917601,502.563234 C154.43645,503.597278 152.301538,505.033429 150.512801,506.87173 C148.724064,508.71003 147.281556,510.835533 146.185234,513.248303 C145.088911,515.661072 144.540758,518.246144 144.540758,521.003594 L144.540758,521.003594 Z M111.478141,520.658915 C111.478141,514.109969 112.805249,507.991967 115.459504,502.304725 C118.113758,496.617482 121.806579,491.677124 126.538077,487.483501 C131.269574,483.289878 136.895356,479.986731 143.41559,477.573961 C149.935825,475.161192 157.061815,473.954825 164.793774,473.954825 C172.410331,473.954825 179.478621,475.132469 185.998856,477.487791 C192.51909,479.843114 198.173722,483.117538 202.962921,487.311161 C207.752119,491.504784 211.47379,496.502589 214.128045,502.304725 C216.7823,508.106861 218.109407,514.512093 218.109407,521.520614 C218.109407,528.529135 216.753449,534.934367 214.041494,540.736503 C211.329538,546.538639 207.607867,551.536444 202.876369,555.730067 C198.144872,559.92369 192.46139,563.169391 185.825753,565.467266 C179.190116,567.765142 172.006426,568.914062 164.274466,568.914062 C156.657909,568.914062 149.61847,567.765142 143.155936,565.467266 C136.693403,563.169391 131.125322,559.894967 126.451525,555.643897 C121.777729,551.392827 118.113758,546.308853 115.459504,540.391823 C112.805249,534.474794 111.478141,527.897223 111.478141,520.658915 L111.478141,520.658915 Z M265.712651,521.003594 C265.712651,523.990833 266.260804,526.719519 267.357126,529.189735 C268.453449,531.659952 269.895957,533.814178 271.684694,535.652479 C273.473431,537.490779 275.608343,538.92693 278.089494,539.960974 C280.570645,540.995018 283.19601,541.512032 285.965667,541.512032 C288.735324,541.512032 291.360689,540.995018 293.84184,539.960974 C296.322991,538.92693 298.457903,537.490779 300.24664,535.652479 C302.035377,533.814178 303.477885,531.659952 304.574208,529.189735 C305.67053,526.719519 306.218683,524.048279 306.218683,521.175934 C306.218683,518.418483 305.67053,515.804689 304.574208,513.334473 C303.477885,510.864256 302.035377,508.71003 300.24664,506.87173 C298.457903,505.033429 296.322991,503.597278 293.84184,502.563234 C291.360689,501.52919 288.735324,501.012176 285.965667,501.012176 C283.19601,501.012176 280.570645,501.52919 278.089494,502.563234 C275.608343,503.597278 273.473431,505.033429 271.684694,506.87173 C269.895957,508.71003 268.453449,510.835533 267.357126,513.248303 C266.260804,515.661072 265.712651,518.246144 265.712651,521.003594 L265.712651,521.003594 Z M232.650034,520.658915 C232.650034,514.109969 233.977142,507.991967 236.631396,502.304725 C239.285651,496.617482 242.978472,491.677124 247.70997,487.483501 C252.441467,483.289878 258.067249,479.986731 264.587483,477.573961 C271.107718,475.161192 278.233708,473.954825 285.965667,473.954825 C293.582224,473.954825 300.650514,475.132469 307.170748,477.487791 C313.690983,479.843114 319.345615,483.117538 324.134813,487.311161 C328.924012,491.504784 332.645683,496.502589 335.299938,502.304725 C337.954192,508.106861 339.2813,514.512093 339.2813,521.520614 C339.2813,528.529135 337.925342,534.934367 335.213386,540.736503 C332.50143,546.538639 328.77976,551.536444 324.048262,555.730067 C319.316764,559.92369 313.633282,563.169391 306.997646,565.467266 C300.362009,567.765142 293.178318,568.914062 285.446359,568.914062 C277.829802,568.914062 270.790362,567.765142 264.327829,565.467266 C257.865296,563.169391 252.297215,559.894967 247.623418,555.643897 C242.949622,551.392827 239.285651,546.308853 236.631396,540.391823 C233.977142,534.474794 232.650034,527.897223 232.650034,520.658915 L232.650034,520.658915 Z M391.212111,503.252594 L391.212111,565.639606 L359.880522,565.639606 L359.880522,503.252594 L348.628846,503.252594 L348.628846,477.229282 L359.880522,477.229282 L359.880522,463.959116 C359.880522,456.605914 360.572926,450.746419 361.957754,446.380455 C363.111778,442.703854 364.958188,439.285815 367.497041,436.126236 C370.035893,432.966657 373.00746,430.237971 376.41183,427.940095 C379.8162,425.642219 383.480171,423.861392 387.403852,422.597561 C391.327533,421.333729 395.193454,420.701823 399.001733,420.701823 C401.655988,420.701823 404.108251,420.989053 406.358598,421.563522 C408.608944,422.137991 410.888107,422.942235 413.196155,423.976279 L413.196155,451.20597 C411.118912,450.171926 409.185951,449.396404 407.397214,448.879382 C405.608477,448.36236 403.733217,448.103853 401.771376,448.103853 C400.50195,448.103853 399.203693,448.304914 397.876565,448.707043 C396.549438,449.109171 395.308881,449.942138 394.154857,451.20597 C393.000833,452.469802 392.221879,454.279351 391.817971,456.634674 C391.414062,458.989997 391.212111,462.178251 391.212111,466.199534 L391.212111,477.229282 L413.196155,477.229282 L413.196155,503.252594 L391.212111,503.252594 Z M495.766144,521.692954 C495.766144,518.935503 495.246841,516.321708 494.20822,513.851492 C493.169599,511.381276 491.727091,509.22705 489.880652,507.388749 C488.034214,505.550449 485.899302,504.085575 483.475852,502.994084 C481.052402,501.902593 478.398188,501.356856 475.513128,501.356856 C472.743471,501.356856 470.146956,501.87387 467.723506,502.907914 C465.300056,503.941958 463.193995,505.378109 461.405258,507.216409 C459.616521,509.05471 458.174013,511.208936 457.07769,513.679152 C455.981367,516.149369 455.433214,518.763163 455.433214,521.520614 C455.433214,524.278065 455.952517,526.863136 456.991139,529.275905 C458.02976,531.688675 459.472268,533.785455 461.318706,535.566309 C463.165144,537.347162 465.328907,538.783313 467.810058,539.874804 C470.291209,540.966295 472.916574,541.512032 475.686231,541.512032 C478.455888,541.512032 481.052402,540.995018 483.475852,539.960974 C485.899302,538.92693 488.005364,537.490779 489.794101,535.652479 C491.582838,533.814178 493.025346,531.688675 494.121669,529.275905 C495.217991,526.863136 495.766144,524.335511 495.766144,521.692954 L495.766144,521.692954 Z M456.298728,422.597561 L456.298728,486.018612 C463.68448,478.320729 472.916532,474.471845 483.995161,474.471845 C490.573096,474.471845 496.60278,475.706934 502.084393,478.177151 C507.566006,480.647367 512.239732,483.979237 516.105712,488.17286 C519.971692,492.366483 523.000959,497.306842 525.193604,502.994084 C527.386249,508.681326 528.482555,514.741882 528.482555,521.175934 C528.482555,527.72488 527.357399,533.871605 525.107053,539.616294 C522.856706,545.360983 519.712039,550.358788 515.672955,554.609858 C511.633872,558.860928 506.873595,562.221521 501.391982,564.691737 C495.910369,567.161953 489.996086,568.397043 483.648955,568.397043 C472.108717,568.397043 462.992066,564.203483 456.298728,555.816237 L456.298728,565.639606 L424.967138,565.639606 L424.967138,422.597561 L456.298728,422.597561 Z M611.225648,508.595128 C610.187027,504.229164 608.052115,500.724956 604.820848,498.082399 C601.589581,495.439842 597.665959,494.118583 593.049864,494.118583 C588.202964,494.118583 584.250492,495.382396 581.192329,497.910059 C578.134166,500.437723 576.201205,503.999376 575.393388,508.595128 L611.225648,508.595128 Z M574.527875,526.690808 C574.527875,540.133381 580.87491,546.854566 593.569172,546.854566 C600.377913,546.854566 605.513241,544.097157 608.975313,538.582255 L639.268286,538.582255 C633.15196,558.803561 617.861374,568.914062 593.39607,568.914062 C585.894915,568.914062 579.028576,567.793865 572.796848,565.553436 C566.565119,563.313007 561.227839,560.124753 556.784848,555.988576 C552.341856,551.8524 548.908687,546.912042 546.485237,541.167353 C544.061787,535.422663 542.85008,528.988708 542.85008,521.865293 C542.85008,514.512091 544.004086,507.877075 546.312134,501.960045 C548.620182,496.043015 551.9091,491.016487 556.178988,486.880311 C560.448876,482.744135 565.613055,479.55588 571.67168,477.315452 C577.730305,475.075023 584.567794,473.954825 592.184351,473.954825 C599.685505,473.954825 606.436443,475.075023 612.437367,477.315452 C618.438291,479.55588 623.515919,482.801581 627.670405,487.052651 C631.824891,491.303721 634.998408,496.502587 637.191054,502.649404 C639.383699,508.796222 640.480005,515.718468 640.480005,523.416352 L640.480005,526.690808 L574.527875,526.690808 Z M687.390838,521.175934 C687.390838,524.048279 687.910141,526.719519 688.948762,529.189735 C689.987384,531.659952 691.401042,533.814178 693.189778,535.652479 C694.978515,537.490779 697.113427,538.92693 699.594578,539.960974 C702.07573,540.995018 704.758795,541.512032 707.643854,541.512032 C710.413511,541.512032 713.038876,540.995018 715.520027,539.960974 C718.001178,538.92693 720.13609,537.490779 721.924827,535.652479 C723.713564,533.814178 725.156072,531.688675 726.252395,529.275905 C727.348717,526.863136 727.896871,524.278065 727.896871,521.520614 C727.896871,518.763163 727.348717,516.149369 726.252395,513.679152 C725.156072,511.208936 723.713564,509.05471 721.924827,507.216409 C720.13609,505.378109 718.001178,503.941958 715.520027,502.907914 C713.038876,501.87387 710.413511,501.356856 707.643854,501.356856 C704.758795,501.356856 702.07573,501.87387 699.594578,502.907914 C697.113427,503.941958 694.978515,505.378109 693.189778,507.216409 C691.401042,509.05471 689.987384,511.15149 688.948762,513.506812 C687.910141,515.862135 687.390838,518.418483 687.390838,521.175934 L687.390838,521.175934 Z M726.858254,477.229282 L758.362946,477.229282 L758.362946,565.639606 L726.858254,565.639606 L726.858254,555.816237 C720.164916,564.203483 711.105965,568.397043 699.68113,568.397043 C693.218597,568.397043 687.275463,567.219399 681.851551,564.864077 C676.427639,562.508754 671.696213,559.205608 667.65713,554.954538 C663.618046,550.703468 660.473379,545.705663 658.223032,539.960974 C655.972686,534.216285 654.847529,527.954667 654.847529,521.175934 C654.847529,514.856776 655.943836,508.853666 658.136481,503.166424 C660.329126,497.479181 663.387243,492.5101 667.310924,488.25903 C671.234605,484.00796 675.908331,480.647367 681.332243,478.177151 C686.756155,475.706934 692.756989,474.471845 699.334924,474.471845 C710.413553,474.471845 719.587904,478.320729 726.858254,486.018612 L726.858254,477.229282 Z M814.621325,503.252594 L814.621325,565.639606 L783.289736,565.639606 L783.289736,503.252594 L772.903574,503.252594 L772.903574,477.229282 L783.289736,477.229282 L783.289736,450.68895 L814.621325,450.68895 L814.621325,477.229282 L832.450904,477.229282 L832.450904,503.252594 L814.621325,503.252594 Z M903.076807,499.978137 C897.306688,496.990899 891.652056,495.497302 886.112742,495.497302 C883.227683,495.497302 880.890819,496.071762 879.102083,497.2207 C877.313346,498.369638 876.418991,499.920681 876.418991,501.873875 C876.418991,502.907919 876.563241,503.740887 876.851747,504.372802 C877.140253,505.004718 877.774957,505.607901 878.755877,506.18237 C879.736797,506.756839 881.179305,507.273854 883.083445,507.733429 C884.987584,508.193004 887.497548,508.767464 890.613412,509.456827 C899.268591,511.180234 905.731027,514.253596 910.000915,518.677007 C914.270803,523.100418 916.405715,528.758851 916.405715,535.652479 C916.405715,540.822699 915.367109,545.475827 913.289867,549.612003 C911.212624,553.74818 908.327608,557.223664 904.634731,560.038562 C900.941855,562.85346 896.49893,565.036409 891.305823,566.587475 C886.112716,568.138541 880.400384,568.914062 874.168655,568.914062 C862.166808,568.914062 850.338241,565.524747 838.682601,558.746014 L850.10738,536.686517 C858.87796,542.660994 867.186807,545.648188 875.034169,545.648188 C877.919228,545.648188 880.284942,545.016281 882.13138,543.75245 C883.977818,542.488618 884.901023,540.880129 884.901023,538.926935 C884.901023,537.777997 884.756772,536.830138 884.468266,536.083328 C884.17976,535.336518 883.573907,534.647166 882.650688,534.01525 C881.727469,533.383334 880.371511,532.808874 878.582774,532.291852 C876.794038,531.77483 874.457174,531.229093 871.572115,530.654624 C861.878315,528.70143 855.098527,525.800405 851.232547,521.951463 C847.366567,518.102522 845.433607,512.788764 845.433607,506.010031 C845.433607,501.069598 846.356812,496.617531 848.20325,492.653695 C850.049688,488.68986 852.703903,485.329267 856.165974,482.571816 C859.628046,479.814365 863.811319,477.688862 868.71592,476.195243 C873.620521,474.701624 879.073202,473.954825 885.074126,473.954825 C894.883328,473.954825 904.403882,475.850544 913.636072,479.642039 L903.076807,499.978137 Z" id="hoofbeats-outline" fill="#444444"></path>
                <g id="hoof-logo" transform="translate(234.538616, 0.000000)">
                    <path d="M206.774852,36.2543418 C210.86577,41.9734779 203.502116,62.0893987 196.041636,62.0858074 C168.799898,62.072694 111.221861,323.845158 281.638724,323.84516 C455.93327,323.845161 391.275428,62.0858047 365.093527,62.0858047 C359.366236,62.0858047 353.888557,41.7934725 355.275314,36.2543428 C356.502591,31.3522266 356.911683,33.394775 401.911829,0.713999209 C408.064863,-3.75456234 420.117581,37.0999635 420.117581,37.0999635 C420.117581,37.0999635 574.548739,375.725891 281.638724,375.72589 C-11.2712913,375.725888 142.138285,32.5777546 142.138285,32.5777546 C142.138285,32.5777546 155.549239,-3.64902482 160.960973,0.301049726 C203.502116,31.3522269 204.206591,32.6638916 206.774852,36.2543418 Z M137.229179,150.064156 C139.940404,150.064156 142.138285,145.839173 142.138285,140.627393 C142.138285,135.415612 139.940404,131.190629 137.229179,131.190629 C134.517955,131.190629 132.320073,135.415612 132.320073,140.627393 C132.320073,145.839173 134.517955,150.064156 137.229179,150.064156 Z M133.956442,228.020028 C136.667666,228.020028 138.865548,223.795045 138.865548,218.583264 C138.865548,213.371484 136.667666,209.146501 133.956442,209.146501 C131.245217,209.146501 129.047335,213.371484 129.047335,218.583264 C129.047335,223.795045 131.245217,228.020028 133.956442,228.020028 Z M159.320158,305.975899 C162.031382,305.975899 164.229264,301.750916 164.229264,296.539136 C164.229264,291.327355 162.031382,287.102372 159.320158,287.102372 C156.608933,287.102372 154.411051,291.327355 154.411051,296.539136 C154.411051,301.750916 156.608933,305.975899 159.320158,305.975899 Z M425.230084,150.064156 C427.941309,150.064156 430.139191,145.839173 430.139191,140.627393 C430.139191,135.415612 427.941309,131.190629 425.230084,131.190629 C422.51886,131.190629 420.320978,135.415612 420.320978,140.627393 C420.320978,145.839173 422.51886,150.064156 425.230084,150.064156 Z M428.502822,228.020028 C431.214046,228.020028 433.411928,223.795045 433.411928,218.583264 C433.411928,213.371484 431.214046,209.146501 428.502822,209.146501 C425.791597,209.146501 423.593715,213.371484 423.593715,218.583264 C423.593715,223.795045 425.791597,228.020028 428.502822,228.020028 Z M403.139106,305.975899 C405.85033,305.975899 408.048212,301.750916 408.048212,296.539136 C408.048212,291.327355 405.85033,287.102372 403.139106,287.102372 C400.427881,287.102372 398.229999,291.327355 398.229999,296.539136 C398.229999,301.750916 400.427881,305.975899 403.139106,305.975899 Z" id="hoof" fill="#FFFFFF"></path>
                    <g id="bottom" transform="translate(0.000000, 372.043598)">
                        <path d="M37.5934888,200.333625 C8.00852245,305.397019 79.9608116,333.575543 186.251253,333.575543 C292.541694,333.575543 345.829471,334.035829 345.829475,255.787131 C345.82948,177.538433 241.896696,142.556662 283.745729,0.328146805" id="J" stroke="#FFFFFF" stroke-width="22.3560007"></path>
                        <g id="bell" transform="translate(0.000000, 98.201786)">
                            <g id="bell-outer">
                                <use fill="#FFFFFF" fill-rule="evenodd" xlink:href="#path-1"></use>
                                <use stroke="#68946B" mask="url(#mask-2)" stroke-width="5.96160019" xlink:href="#path-1"></use>
                            </g>
                            <g id="bell-inner">
                                <use fill="#79AD7E" fill-rule="evenodd" xlink:href="#path-3"></use>
                                <use stroke="#67946B" mask="url(#mask-4)" stroke-width="5.96160019" xlink:href="#path-3"></use>
                            </g>
                        </g>
                    </g>
                </g>
                <path d="M456.298728,422.597561 L456.298728,486.018612 C463.68448,478.320729 472.916532,474.471845 483.995161,474.471845 C490.573096,474.471845 496.60278,475.706934 502.084393,478.177151 C507.566006,480.647367 512.239732,483.979237 516.105712,488.17286 C519.971692,492.366483 523.000959,497.306842 525.193604,502.994084 C527.386249,508.681326 528.482555,514.741882 528.482555,521.175934 C528.482555,527.72488 527.357399,533.871605 525.107053,539.616294 C522.856706,545.360983 519.712039,550.358788 515.672955,554.609858 C511.633872,558.860928 506.873595,562.221521 501.391982,564.691737 C495.910369,567.161953 489.996086,568.397043 483.648955,568.397043 C472.108717,568.397043 462.992066,564.203483 456.298728,555.816237 L456.298728,565.639606 L424.967138,565.639606 L424.967138,422.597561 L456.298728,422.597561 Z M495.766144,521.692954 C495.766144,518.935503 495.246841,516.321708 494.20822,513.851492 C493.169599,511.381276 491.727091,509.22705 489.880652,507.388749 C488.034214,505.550449 485.899302,504.085575 483.475852,502.994084 C481.052402,501.902593 478.398188,501.356856 475.513128,501.356856 C472.743471,501.356856 470.146956,501.87387 467.723506,502.907914 C465.300056,503.941958 463.193995,505.378109 461.405258,507.216409 C459.616521,509.05471 458.174013,511.208936 457.07769,513.679152 C455.981367,516.149369 455.433214,518.763163 455.433214,521.520614 C455.433214,524.278065 455.952517,526.863136 456.991139,529.275905 C458.02976,531.688675 459.472268,533.785455 461.318706,535.566309 C463.165144,537.347162 465.328907,538.783313 467.810058,539.874804 C470.291209,540.966295 472.916574,541.512032 475.686231,541.512032 C478.455888,541.512032 481.052402,540.995018 483.475852,539.960974 C485.899302,538.92693 488.005364,537.490779 489.794101,535.652479 C491.582838,533.814178 493.025346,531.688675 494.121669,529.275905 C495.217991,526.863136 495.766144,524.335511 495.766144,521.692954 L495.766144,521.692954 Z" id="Path" fill="#444444"></path>
            </g>
        </g>
    </g>
</svg>
