<?xml version="1.0" encoding="UTF-8"?>
<svg viewBox="0 0 298 400" version="1.1" xmlns="http://www.w3.org/2000/svg" xmlns:xlink="http://www.w3.org/1999/xlink">
    <defs>
        <path d="M208.272394,327.868304 C209.013732,258.794544 297.637795,218.155927 297.637795,118.523479 C297.637795,19.5510179 208.111354,0.00514526079 148.819448,-1.83701718e-07 C89.5275426,-0.0051456282 0,19.5510179 0,118.523479 C0,221.896266 89.983508,271.23341 87.4712704,326.128738 C87.3517619,327.17954 87.2665536,328.253753 87.2169087,329.3516 C87.2112244,329.402195 87.2054571,329.452814 87.1996087,329.503439 L87.210284,329.503372 C87.1804801,330.210305 87.1653935,330.927012 87.1653543,331.653543 C87.1651252,335.905511 91.4173228,347.233872 147.755906,347.233873 C204.094488,347.233873 208.080724,338.031118 208.346457,331.653544 C208.399998,330.36855 208.373986,329.106568 208.272394,327.868304 Z" id="path-1"></path>
        <mask id="mask-2" maskContentUnits="userSpaceOnUse" maskUnits="objectBoundingBox" x="0" y="0" width="297.637795" height="347.233874" fill="white">
            <use xlink:href="#path-1"></use>
        </mask>
    </defs>
    <g id="Assets" stroke="none" stroke-width="1" fill="none" fill-rule="evenodd">
        <g id="lightbulb">
            <g id="bulb-container" transform="translate(0.000000, 5.000000)">
                <g id="bulb-bottom" transform="translate(89.291339, 345.980162)" fill="#cccccc">
                    <path d="M59.5794017,6.77574401 C96.8095903,6.77574401 116.574803,-2.07635769 116.574803,1.82410897 C116.574803,5.72457563 81.6628692,18.3993728 59.5793994,18.3993751 C37.4959297,18.3993773 8.32823312e-09,5.8592831 0,1.82410896 C-8.32823369e-09,-2.21106519 22.3492131,6.77574401 59.5794017,6.77574401 Z" id="Path-55"></path>
                    <path d="M59.5793994,21.5782787 C96.809588,21.5782787 116.574803,8.88074823 116.574803,12.7812149 C116.574803,16.6816815 81.6628692,29.3564787 59.5793994,29.356481 C37.4959297,29.3564832 8.32823312e-09,16.816389 0,12.7812149 C-8.32823369e-09,8.74604073 22.3492109,21.5782787 59.5793994,21.5782787 Z" id="Path-55-Copy-2"></path>
                    <path d="M59.5793994,31.9464347 C96.809588,31.9464347 116.574803,19.2489042 116.574803,23.1493709 C116.574803,27.0498375 81.6628714,37.8781033 59.5794017,37.8781056 C37.4959319,37.8781078 8.32823312e-09,27.184545 0,23.1493709 C-8.32823369e-09,19.1141967 22.3492109,31.9464347 59.5793994,31.9464347 Z" id="Path-55-Copy-3"></path>
                    <path d="M59.5793994,39.4011847 C96.809588,39.4011847 116.574803,26.7036542 116.574803,30.6041209 C116.574803,34.5045875 81.6628692,44.2307374 59.5793994,44.2307397 C37.4959297,44.230742 8.32823312e-09,34.639295 0,30.6041208 C-8.32823369e-09,26.5689467 22.3492109,39.4011847 59.5793994,39.4011847 Z" id="Path-55-Copy-4"></path>
                </g>
                <use id="BULB" stroke="#e6e6e7" mask="url(#mask-2)" stroke-width="12.7559057" xlink:href="#path-1"></use>
                <path d="M195.782677,339.36378 C195.812074,339.518111 195.880971,339.647637 195.98937,339.752362 C196.09777,339.857087 196.240157,339.909449 196.416535,339.909449 C196.552494,339.909449 196.664566,339.884646 196.752756,339.835039 C196.840945,339.785433 196.91168,339.718373 196.964961,339.633858 C197.018242,339.549343 197.054987,339.452888 197.075197,339.344488 C197.095407,339.236089 197.105512,339.123098 197.105512,339.005512 L197.105512,336.255118 L197.502362,336.255118 L197.502362,339.033071 C197.502362,339.16168 197.488583,339.297637 197.461024,339.440945 C197.433464,339.584253 197.381103,339.716535 197.303937,339.837795 C197.226771,339.959056 197.120211,340.059186 196.984252,340.138189 C196.848293,340.217192 196.673754,340.256693 196.46063,340.256693 C196.177689,340.256693 195.944358,340.182284 195.76063,340.033465 C195.576902,339.884645 195.461155,339.694489 195.413386,339.462992 L195.782677,339.36378 Z M199.804724,339.485039 L199.810236,339.485039 L201.116535,336.255118 L201.722835,336.255118 L201.722835,340.15748 L201.325984,340.15748 L201.325984,336.767717 L201.314961,336.767717 L199.903937,340.15748 L199.694488,340.15748 L198.283465,336.767717 L198.272441,336.767717 L198.272441,340.15748 L197.875591,340.15748 L197.875591,336.255118 L198.48189,336.255118 L199.804724,339.485039 Z" id="author" stroke="#dddddd" stroke-width="0.1"></path>
            </g>
        </g>
    </g>
</svg>
