<?xml version="1.0" encoding="UTF-8"?>
<svg viewBox="0 0 72 156" version="1.1" xmlns="http://www.w3.org/2000/svg" xmlns:xlink="http://www.w3.org/1999/xlink">
    <defs></defs>
    <g id="Assets" stroke="none" stroke-width="1" fill="none" fill-rule="evenodd">
        <g id="Artboard-3" transform="translate(-35.000000, -379.000000)" fill="#E9E7E7">
            <g id="male" transform="translate(35.000000, 379.000000)">
                <path d="M36.6168443,31.6354867 C45.453937,31.6354867 52.622117,24.5522858 52.622117,15.8162218 C52.622117,7.08014168 45.453937,0 36.6168443,0 C27.7798488,0 20.6116526,7.08014168 20.6116526,15.8162218 C20.6116526,24.5522858 27.7798488,31.6354867 36.6168443,31.6354867 L36.6168443,31.6354867 Z" id="Shape"></path>
                <path d="M25.1625905,34.2867179 C11.2726175,34.2867179 0,45.4214181 0,59.1555844 L0,92.3313388 C0,96.0144924 2.99287669,98.9609384 6.68166157,98.9609384 C10.3642898,98.9609384 13.3510747,96.0144924 13.3510747,92.3677762 C13.3510747,92.310069 13.3387291,57.9380156 13.3387291,57.9380156 L16.350108,57.9380156 L16.350108,99.3109934 L16.3531863,147.49635 C16.3562808,152.113902 20.1435716,155.848821 24.8054095,155.848821 C29.485604,155.848821 33.276054,152.1078 33.276054,147.490088 C33.276054,147.307565 33.2606301,147.127844 33.2482844,146.945337 L33.2482844,99.3109934 L38.1410441,99.3109934 L38.1410441,147.49635 C38.1564032,152.113902 41.9252565,155.848821 46.6024374,155.848821 C51.2734617,155.848821 55.0608335,152.1078 55.0608335,147.490088 C55.0608335,147.307565 55.042315,147.127844 55.0299694,146.945337 L55.0299694,99.3109934 L55.0361422,57.9380156 L57.758063,57.9380156 L57.758063,92.3313388 C57.758063,96.0144924 60.7325023,98.9609384 64.4274599,98.9609384 C68.1100882,98.9609384 71.0968731,96.0144924 71.0968731,92.3677762 L71.0968731,59.1555844 C71.0968731,45.4214181 59.8426769,34.2867179 45.9404554,34.2867179 L25.1625905,34.2867179 Z" id="Shape"></path>
            </g>
        </g>
    </g>
</svg>
