<?xml version="1.0" encoding="UTF-8"?>
<svg viewBox="0 0 152 133" version="1.1" xmlns="http://www.w3.org/2000/svg" xmlns:xlink="http://www.w3.org/1999/xlink">
    <defs></defs>
    <g id="Assets" stroke="none" stroke-width="1" fill="none" fill-rule="evenodd">
        <g id="Artboard-3" transform="translate(-227.000000, -206.000000)">
            <g id="message-right" transform="translate(227.000000, 206.000000)">
                <path d="M47.625,112 L131.991915,112 C143.045179,112 152,103.049696 152,92.0089366 L152,19.9910634 C152,8.95255671 143.042075,0 131.991915,0 L20.0080851,0 C8.95482116,0 0,8.95030396 0,19.9910634 L0,92.0089366 C0,103.047443 8.95792483,112 20.0080851,112 L27.375,112 L37.5,133 L47.625,112 Z" fill="#E6E6E6" transform="translate(76.000000, 66.500000) scale(-1, 1) translate(-76.000000, -66.500000) "></path>
                <path d="M13.3692913,107.108661 C13.3986878,107.262993 13.4675848,107.392519 13.5759843,107.497244 C13.6843837,107.601969 13.8267708,107.654331 14.0031496,107.654331 C14.1391083,107.654331 14.2511807,107.629528 14.3393701,107.579921 C14.4275595,107.530315 14.4982937,107.463255 14.5515748,107.37874 C14.6048559,107.294225 14.6416009,107.19777 14.661811,107.08937 C14.6820211,106.980971 14.692126,106.86798 14.692126,106.750394 L14.692126,104 L15.0889764,104 L15.0889764,106.777953 C15.0889764,106.906562 15.075197,107.042519 15.0476378,107.185827 C15.0200786,107.329135 14.9677169,107.461417 14.8905512,107.582677 C14.8133854,107.703938 14.7068248,107.804068 14.5708661,107.883071 C14.4349075,107.962074 14.2603685,108.001575 14.0472441,108.001575 C13.764303,108.001575 13.530972,107.927166 13.3472441,107.778346 C13.1635161,107.629527 13.0477693,107.439371 13,107.207874 L13.3692913,107.108661 Z M17.3913386,107.229921 L17.3968504,107.229921 L18.7031496,104 L19.3094488,104 L19.3094488,107.902362 L18.9125984,107.902362 L18.9125984,104.512598 L18.9015748,104.512598 L17.4905512,107.902362 L17.2811024,107.902362 L15.8700787,104.512598 L15.8590551,104.512598 L15.8590551,107.902362 L15.4622047,107.902362 L15.4622047,104 L16.0685039,104 L17.3913386,107.229921 Z" id="author" stroke="#E1E1E1" stroke-width="0.1"></path>
            </g>
        </g>
    </g>
</svg>
