<?xml version="1.0" encoding="UTF-8"?>
<svg viewBox="0 0 152 133" version="1.1" xmlns="http://www.w3.org/2000/svg" xmlns:xlink="http://www.w3.org/1999/xlink">
    <defs></defs>
    <g id="Assets" stroke="none" stroke-width="1" fill="none" fill-rule="evenodd">
        <g id="Artboard-3" transform="translate(-35.000000, -206.000000)">
            <g id="message-left" transform="translate(35.000000, 206.000000)">
                <path d="M47.625,112 L131.991915,112 C143.045179,112 152,103.049696 152,92.0089366 L152,19.9910634 C152,8.95255671 143.042075,0 131.991915,0 L20.0080851,0 C8.95482116,0 0,8.95030396 0,19.9910634 L0,92.0089366 C0,103.047443 8.95792483,112 20.0080851,112 L27.375,112 L37.5,133 L47.625,112 Z" fill="#E6E6E7"></path>
                <path d="M130.782677,108.36378 C130.812074,108.518111 130.880971,108.647637 130.98937,108.752362 C131.09777,108.857087 131.240157,108.909449 131.416535,108.909449 C131.552494,108.909449 131.664566,108.884646 131.752756,108.835039 C131.840945,108.785433 131.91168,108.718373 131.964961,108.633858 C132.018242,108.549343 132.054987,108.452888 132.075197,108.344488 C132.095407,108.236089 132.105512,108.123098 132.105512,108.005512 L132.105512,105.255118 L132.502362,105.255118 L132.502362,108.033071 C132.502362,108.16168 132.488583,108.297637 132.461024,108.440945 C132.433464,108.584253 132.381103,108.716535 132.303937,108.837795 C132.226771,108.959056 132.120211,109.059186 131.984252,109.138189 C131.848293,109.217192 131.673754,109.256693 131.46063,109.256693 C131.177689,109.256693 130.944358,109.182284 130.76063,109.033465 C130.576902,108.884645 130.461155,108.694489 130.413386,108.462992 L130.782677,108.36378 Z M134.804724,108.485039 L134.810236,108.485039 L136.116535,105.255118 L136.722835,105.255118 L136.722835,109.15748 L136.325984,109.15748 L136.325984,105.767717 L136.314961,105.767717 L134.903937,109.15748 L134.694488,109.15748 L133.283465,105.767717 L133.272441,105.767717 L133.272441,109.15748 L132.875591,109.15748 L132.875591,105.255118 L133.48189,105.255118 L134.804724,108.485039 Z" id="author" stroke="#E1E1E1" stroke-width="0.1"></path>
            </g>
        </g>
    </g>
</svg>
