<?xml version="1.0" encoding="UTF-8"?>
<svg viewBox="0 0 150 178" version="1.1" xmlns="http://www.w3.org/2000/svg" xmlns:xlink="http://www.w3.org/1999/xlink">
    <defs>
        <rect id="path-1" x="0" y="0" width="150" height="40" rx="10"></rect>
        <mask id="mask-2" maskContentUnits="userSpaceOnUse" maskUnits="objectBoundingBox" x="0" y="0" width="150" height="40" fill="white">
            <use xlink:href="#path-1"></use>
        </mask>
        <rect id="path-3" x="0" y="0" width="67" height="40" rx="10"></rect>
        <mask id="mask-4" maskContentUnits="userSpaceOnUse" maskUnits="objectBoundingBox" x="0" y="0" width="67" height="40" fill="white">
            <use xlink:href="#path-3"></use>
        </mask>
        <rect id="path-5" x="0" y="0" width="150" height="40" rx="10"></rect>
        <mask id="mask-6" maskContentUnits="userSpaceOnUse" maskUnits="objectBoundingBox" x="0" y="0" width="150" height="40" fill="white">
            <use xlink:href="#path-5"></use>
        </mask>
        <rect id="path-7" x="0" y="0" width="67" height="40" rx="10"></rect>
        <mask id="mask-8" maskContentUnits="userSpaceOnUse" maskUnits="objectBoundingBox" x="0" y="0" width="67" height="40" fill="white">
            <use xlink:href="#path-7"></use>
        </mask>
    </defs>
    <g id="Assets" stroke="none" stroke-width="1" fill="none" fill-rule="evenodd">
        <g id="Artboard-3" transform="translate(-271.000000, -539.000000)">
            <g id="randomize" transform="translate(271.000000, 539.000000)">
                <path d="M54.5,41 C54.5,41 72.5,51 72.5,107.5 C72.5,164 94.5,177.5 94.5,177.5" id="Path-22-Copy-2" stroke="#DCDCDC" stroke-linecap="round" stroke-linejoin="round" transform="translate(74.500000, 109.250000) scale(-1, 1) translate(-74.500000, -109.250000) "></path>
                <path d="M58.5,41 C58.5,41 76.5,51 76.5,107.5 C76.5,164 98.5,177.5 98.5,177.5" id="Path-22-Copy-3" stroke="#636363" stroke-linecap="round" stroke-linejoin="round"></path>
                <g id="top">
                    <use id="Rectangle-28" stroke="#979797" mask="url(#mask-2)" stroke-width="2" fill="#FAFAFA" xlink:href="#path-1"></use>
                    <use id="Rectangle-28-Copy-2" stroke="#979797" mask="url(#mask-4)" stroke-width="2" fill="#B7B8B8" xlink:href="#path-3"></use>
                    <path d="M87.3523999,13.0475002 L79.942,13.0475002 L79.942,26 L87.3523999,26 L87.3523999,23.4095 L82.8936,23.4095 L82.8936,20.8033001 L87.1639999,20.8033001 L87.1639999,18.2128001 L82.8936,18.2128001 L82.8936,15.6380001 L87.3523999,15.6380001 L87.3523999,13.0475002 Z M88.7460768,26 L91.5249767,26 L91.5249767,12.4980002 L88.7460768,12.4980002 L88.7460768,26 Z M94.5357536,12.9690002 C95.4463535,12.9690002 96.1842535,13.7069001 96.1842535,14.6175001 C96.1842535,15.5281001 95.4463535,16.2660001 94.5357536,16.2660001 C93.6251536,16.2660001 92.8872536,15.5281001 92.8872536,14.6175001 C92.8872536,13.7069001 93.6251536,12.9690002 94.5357536,12.9690002 L94.5357536,12.9690002 Z M93.1070536,17.9459001 L95.8859535,17.9459001 L95.8859535,26 L93.1070536,26 L93.1070536,17.9459001 Z M97.1854304,27.9782 C98.0332304,29.9407 99.9643304,30.3174999 101.64423,30.3174999 C104.39173,30.3174999 106.38563,28.9202 106.38563,26.2198 L106.38563,17.9459001 L103.60673,17.9459001 L103.60673,18.6681001 L103.55963,18.6681001 C102.90023,18.0558001 102.03673,17.7104001 100.96913,17.7104001 C98.6141304,17.7104001 96.9656304,19.6258001 96.9656304,21.9808 C96.9656304,24.3358 98.6141304,26.2355 100.96913,26.2355 C102.06813,26.2355 103.01013,26.0785 103.60673,25.4191 L103.60673,26.0157 C103.60673,27.4444 102.41353,27.8997 101.64423,27.8997 C100.43533,27.8997 99.7602304,27.3502 99.4619304,26.8635 L97.1854304,27.9782 Z M99.9172304,21.9808 C99.9172304,20.8661001 100.74933,20.0811001 101.80123,20.0811001 C102.83743,20.0811001 103.66953,20.8661001 103.66953,21.9808 C103.66953,23.0798 102.88453,23.8648 101.80123,23.8648 C100.67083,23.8648 99.9172304,23.0798 99.9172304,21.9808 L99.9172304,21.9808 Z M109.396407,12.9690002 C110.307007,12.9690002 111.044907,13.7069001 111.044907,14.6175001 C111.044907,15.5281001 110.307007,16.2660001 109.396407,16.2660001 C108.485807,16.2660001 107.747907,15.5281001 107.747907,14.6175001 C107.747907,13.7069001 108.485807,12.9690002 109.396407,12.9690002 L109.396407,12.9690002 Z M107.967707,17.9459001 L110.746607,17.9459001 L110.746607,26 L107.967707,26 L107.967707,17.9459001 Z M121.827184,21.9808 C121.827184,19.6258001 120.178684,17.7104001 117.823684,17.7104001 C116.740384,17.7104001 115.845484,18.0715001 115.186084,18.7152001 L115.186084,12.4980002 L112.407184,12.4980002 L112.407184,26 L115.154684,26 L115.154684,25.0894 L115.186084,25.0894 C115.782684,25.7488 116.724684,26.2355 117.823684,26.2355 C120.178684,26.2355 121.827184,24.3358 121.827184,21.9808 L121.827184,21.9808 Z M118.875584,21.9808 C118.875584,23.0798 118.121984,23.8648 116.991584,23.8648 C115.908284,23.8648 115.123284,23.0798 115.123284,21.9808 C115.123284,20.8661001 115.955384,20.0811001 116.991584,20.0811001 C118.043484,20.0811001 118.875584,20.8661001 118.875584,21.9808 L118.875584,21.9808 Z M122.828361,26 L125.607261,26 L125.607261,12.4980002 L122.828361,12.4980002 L122.828361,26 Z M135.337637,22.3576 C135.353337,22.2634 135.353337,22.0907 135.353337,21.9808 C135.353337,19.1548001 133.485037,17.7104001 131.035837,17.7104001 C128.602337,17.7104001 126.608438,19.6258001 126.608438,21.9808 C126.608438,24.3201 128.602337,26.2355 131.035837,26.2355 C132.825637,26.2355 134.301437,25.6546 135.212037,24.1317 L133.202437,23.1269 C132.527337,23.8491 132.134837,24.0218 131.239937,24.0218 C130.533437,24.0218 129.497237,23.5979 129.497237,22.3576 L135.337637,22.3576 Z M129.575737,20.8190001 C129.622837,20.0811001 130.156637,19.5159001 131.114337,19.5159001 C131.930737,19.5159001 132.511637,19.9712001 132.637237,20.8190001 L129.575737,20.8190001 Z" id="Eligible" fill="#B8B8B8"></path>
                </g>
                <g id="middle" transform="translate(0.000000, 90.000000)">
                    <use id="Rectangle-28" stroke="#979797" mask="url(#mask-6)" stroke-width="2" fill="#FAFAFA" xlink:href="#path-5"></use>
                    <use id="Rectangle-28-Copy-2" stroke="#979797" mask="url(#mask-8)" stroke-width="2" fill="#B7B8B8" xlink:href="#path-7"></use>
                    <path d="M73.66,14.925 L73.66,24 L75.728,24 L75.728,20.414 L78.5,24 L81.129,24 L78.005,20.249 C79.116,19.897 79.864,18.984 79.864,17.62 C79.864,15.838 78.588,14.925 76.905,14.925 L73.66,14.925 Z M75.728,18.951 L75.728,16.575 L75.97,16.575 C76.751,16.575 77.686,16.63 77.686,17.763 C77.686,18.896 76.751,18.951 75.97,18.951 L75.728,18.951 Z M80.6974615,21.184 C80.6974615,22.834 81.8524615,24.165 83.5024615,24.165 C84.2724615,24.165 84.9324615,23.824 85.3504615,23.362 L85.3724615,23.362 L85.3724615,24 L87.2974615,24 L87.2974615,18.357 L85.3504615,18.357 L85.3504615,18.896 C84.8884615,18.445 84.2614615,18.192 83.5024615,18.192 C81.8524615,18.192 80.6974615,19.534 80.6974615,21.184 L80.6974615,21.184 Z M82.7654615,21.184 C82.7654615,20.403 83.3484615,19.853 84.0854615,19.853 C84.8114615,19.853 85.3944615,20.403 85.3944615,21.184 C85.3944615,21.954 84.8444615,22.504 84.0854615,22.504 C83.2934615,22.504 82.7654615,21.954 82.7654615,21.184 L82.7654615,21.184 Z M88.405923,24 L90.352923,24 L90.352923,20.81 C90.352923,20.249 90.924923,19.71 91.507923,19.71 C92.134923,19.71 92.519923,20.249 92.519923,20.81 L92.519923,24 L94.466923,24 L94.466923,20.282 C94.466923,18.709 93.025923,18.192 91.991923,18.192 C91.375923,18.192 90.814923,18.511 90.374923,18.951 L90.352923,18.951 L90.352923,18.357 L88.405923,18.357 L88.405923,24 Z M95.0583845,21.184 C95.0583845,22.834 96.2133845,24.165 97.8633845,24.165 C98.6333845,24.165 99.2933845,23.824 99.7113845,23.362 L99.7333845,23.362 L99.7333845,24 L101.658384,24 L101.658384,14.54 L99.7113845,14.54 L99.7113845,18.896 C99.2493845,18.445 98.6223845,18.192 97.8633845,18.192 C96.2133845,18.192 95.0583845,19.534 95.0583845,21.184 L95.0583845,21.184 Z M97.1263845,21.184 C97.1263845,20.403 97.7093845,19.853 98.4463845,19.853 C99.1723845,19.853 99.7553845,20.403 99.7553845,21.184 C99.7553845,21.954 99.2053845,22.504 98.4463845,22.504 C97.6543845,22.504 97.1263845,21.954 97.1263845,21.184 L97.1263845,21.184 Z M102.359846,21.184 C102.359846,22.922 103.723846,24.165 105.758846,24.165 C107.705846,24.165 109.124846,22.922 109.124846,21.184 C109.124846,19.424 107.628846,18.192 105.758846,18.192 C103.855846,18.192 102.359846,19.424 102.359846,21.184 L102.359846,21.184 Z M104.427846,21.184 C104.427846,20.403 105.010846,19.853 105.747846,19.853 C106.473846,19.853 107.056846,20.403 107.056846,21.184 C107.056846,21.954 106.506846,22.504 105.747846,22.504 C104.955846,22.504 104.427846,21.954 104.427846,21.184 L104.427846,21.184 Z M109.804307,24 L111.751307,24 L111.751307,20.7 C111.751307,20.249 112.004307,19.754 112.653307,19.754 C113.346307,19.754 113.643307,20.249 113.643307,20.81 L113.643307,24 L115.590307,24 L115.590307,20.634 C115.612307,20.205 115.876307,19.754 116.492307,19.754 C117.185307,19.754 117.482307,20.249 117.482307,20.81 L117.482307,24 L119.429307,24 L119.429307,20.282 C119.429307,18.709 118.263307,18.192 117.229307,18.192 C116.613307,18.192 115.953307,18.511 115.359307,19.226 C114.963307,18.467 114.138307,18.192 113.390307,18.192 C112.774307,18.192 112.213307,18.511 111.773307,18.951 L111.751307,18.951 L111.751307,18.357 L109.804307,18.357 L109.804307,24 Z M121.428769,14.87 C122.066769,14.87 122.583769,15.387 122.583769,16.025 C122.583769,16.663 122.066769,17.18 121.428769,17.18 C120.790769,17.18 120.273769,16.663 120.273769,16.025 C120.273769,15.387 120.790769,14.87 121.428769,14.87 L121.428769,14.87 Z M120.427769,18.357 L122.374769,18.357 L122.374769,24 L120.427769,24 L120.427769,18.357 Z M128.99423,18.357 L123.39523,18.357 L123.39523,19.842 L125.72723,19.842 L122.93323,24 L128.77423,24 L128.77423,22.515 L126.20023,22.515 L128.99423,18.357 Z M135.206692,21.448 C135.217692,21.382 135.217692,21.261 135.217692,21.184 C135.217692,19.204 133.908692,18.192 132.192692,18.192 C130.487692,18.192 129.090692,19.534 129.090692,21.184 C129.090692,22.823 130.487692,24.165 132.192692,24.165 C133.446692,24.165 134.480692,23.758 135.118692,22.691 L133.710692,21.987 C133.237692,22.493 132.962692,22.614 132.335692,22.614 C131.840692,22.614 131.114692,22.317 131.114692,21.448 L135.206692,21.448 Z M131.169692,20.37 C131.202692,19.853 131.576692,19.457 132.247692,19.457 C132.819692,19.457 133.226692,19.776 133.314692,20.37 L131.169692,20.37 Z M135.512153,21.184 C135.512153,22.834 136.667153,24.165 138.317153,24.165 C139.087153,24.165 139.747153,23.824 140.165153,23.362 L140.187153,23.362 L140.187153,24 L142.112153,24 L142.112153,14.54 L140.165153,14.54 L140.165153,18.896 C139.703153,18.445 139.076153,18.192 138.317153,18.192 C136.667153,18.192 135.512153,19.534 135.512153,21.184 L135.512153,21.184 Z M137.580153,21.184 C137.580153,20.403 138.163153,19.853 138.900153,19.853 C139.626153,19.853 140.209153,20.403 140.209153,21.184 C140.209153,21.954 139.659153,22.504 138.900153,22.504 C138.108153,22.504 137.580153,21.954 137.580153,21.184 L137.580153,21.184 Z" id="Randomized" fill="#B8B8B8"></path>
                </g>
            </g>
        </g>
    </g>
</svg>
