<?xml version="1.0" encoding="UTF-8"?>
<svg viewBox="0 0 609 93" version="1.1" xmlns="http://www.w3.org/2000/svg" xmlns:xlink="http://www.w3.org/1999/xlink">
    <defs>
        <path d="M130.265382,0.506286816 C124.50886,1.46006976 148.565107,39.1840799 153.777755,40.6481466 C154.608739,40.8815434 277.989795,52.9006182 287.713933,52.9006182 C361.914495,63.0345798 518.121385,74.9038452 524.525293,75.5429326 C545.137764,77.5999847 567.425901,54.7988209 567.425901,51.2616826 C567.425901,47.7245443 550.544051,20.5215317 526.813325,19.4648076 C519.620017,19.1444912 287.713934,9.63668263 287.713934,9.63668263 C287.713934,9.63668263 131.408702,0.506286816 130.265382,0.506286816 Z" id="path-1"></path>
        <linearGradient x1="133.847632%" y1="54.6618402%" x2="0%" y2="54.6618402%" id="linearGradient-3">
            <stop stop-color="#D6D6D6" offset="0%"></stop>
            <stop stop-color="#CCCCCC" offset="38.6426355%"></stop>
            <stop stop-color="#0C0C0C" offset="100%"></stop>
        </linearGradient>
    </defs>
    <g id="svgs" stroke="none" stroke-width="1" fill="none" fill-rule="evenodd">
        <g id="scalpel">
            <g transform="translate(3.000000, 5.000000)">
                <g id="handle" transform="translate(37.887991, 8.416966)">
                    <path d="M11.5606622,4.68020257 C-2.72975532,3.64570822 -4.37622153,19.493622 11.5606622,19.4936221 C70.3965765,21.7703188 94.1056918,22.6792402 97.1298458,22.7662185 C101.427402,22.8898214 147.494093,39.8544944 147.494093,39.8544944 C148.789238,40.3294654 149.157753,39.826349 148.311874,38.7105605 C148.311874,38.7105605 140.264041,28.3728204 134.599246,18.6692106 C128.934451,8.96560074 127.578812,1.37659915 127.578812,1.37659915 C127.397081,0.561804965 126.635352,0.170609425 125.857281,0.505638172 C125.857281,0.505638172 105.396411,9.64454872 98.1974682,8.19350018 C92.9058957,7.12690907 60.0278805,7.30374585 11.5606622,4.68020257 Z" id="handle-tip" fill="#D9D9D9"></path>
                    <mask id="mask-2" fill="white">
                        <use xlink:href="#path-1"></use>
                    </mask>
                    <use fill="#D9D9D9" xlink:href="#path-1"></use>
                    <g id="Group" style="mix-blend-mode: soft-light;" mask="url(#mask-2)" fill="url(#linearGradient-3)">
                        <g transform="translate(176.000000, -1.000000)">
                            <rect id="Rectangle-49" x="0.626673533" y="0.685386931" width="3.43204868" height="48.5625"></rect>
                            <rect id="Rectangle-49-Copy" x="7.60985076" y="0.727852543" width="3.43204868" height="48.5625"></rect>
                            <rect id="Rectangle-49-Copy-2" x="15.6186613" y="1.84375" width="3.43204868" height="48.5625"></rect>
                            <rect id="Rectangle-49-Copy-3" x="23.6274718" y="1.84375" width="3.43204868" height="48.5625"></rect>
                            <rect id="Rectangle-49-Copy-4" x="30.4915691" y="1.84375" width="3.43204868" height="48.5625"></rect>
                            <rect id="Rectangle-49-Copy-5" x="37.2758153" y="4.15484129" width="3.43204868" height="48.5625"></rect>
                            <rect id="Rectangle-49-Copy-6" x="44.1399127" y="4.15484129" width="3.43204868" height="48.5625"></rect>
                            <rect id="Rectangle-49-Copy-7" x="51.00401" y="4.15484129" width="3.43204868" height="48.5625"></rect>
                            <rect id="Rectangle-49-Copy-8" x="57.8681074" y="4.15484129" width="3.43204868" height="48.5625"></rect>
                            <rect id="Rectangle-49-Copy-9" x="64.7322047" y="4.15484129" width="3.43204868" height="48.5625"></rect>
                            <rect id="Rectangle-49-Copy-10" x="71.4765253" y="7.62147822" width="3.43204868" height="48.5625"></rect>
                            <rect id="Rectangle-49-Copy-11" x="78.3406227" y="7.62147822" width="3.43204868" height="48.5625"></rect>
                            <rect id="Rectangle-49-Copy-12" x="85.2047201" y="7.62147822" width="3.43204868" height="48.5625"></rect>
                            <rect id="Rectangle-49-Copy-13" x="92.0688174" y="7.62147822" width="3.43204868" height="48.5625"></rect>
                            <rect id="Rectangle-49-Copy-14" x="98.9329148" y="7.62147822" width="3.43204868" height="48.5625"></rect>
                        </g>
                    </g>
                </g>
                <path d="M1.06858065,10.0674679 C5.60939697,29.3444057 30.1347932,43.0708312 46.3556555,43.0710173 C51.6230024,43.0710778 109.44273,40.6837805 109.44273,40.6837805 C109.44273,40.6837805 111.440689,38.5352658 115.315519,35.5512212 C148.433206,28.1507873 170.720197,37.3416485 173.559057,37.3416489 C176.344091,37.3416492 179.068581,35.0140933 179.068581,35.0140933 L161.389669,10.0674678 C161.389669,10.0674678 138.927764,10.3061913 129.119601,9.64970131 C112.712118,8.93353021 61.1284446,3.98001397 1.06858065,10.0674679 Z M60.572514,18.0598392 C62.6503481,18.0598393 68.4226524,18.0598392 68.4226524,18.0598392 L69.7611578,17.1807803 L92.8482023,17.1807803 L96.3574331,15.3787096 L126.832647,15.3787096 C132.742615,17.9279804 131.634437,24.2572042 126.832647,26.4556327 C121.707008,26.4556327 96.4036072,26.4556327 96.4036072,26.4556327 L92.9405505,24.2572042 L69.8989398,24.2572042 L68.5144574,23.7297689 C68.5144574,23.7297689 63.758526,23.729769 60.6648622,23.7297689 C59.1411173,23.729769 59.0487691,18.0598393 60.572514,18.0598392 Z" id="sharp" fill="#E6E6E6" transform="translate(90.068581, 25.071017) rotate(-356.000000) translate(-90.068581, -25.071017) "></path>
                <path d="M3.21172903,7.43908096 C2.71188609,7.4239111 1.7294284,7.63994171 1.05605488,7.63994171 C5.59657056,26.9125801 30.1219668,40.6390055 46.3428291,40.6391917 C51.610176,40.6392521 109.429904,38.2519548 109.429904,38.2519548 C109.429904,38.2519548 55.8767595,40.3345588 46.0685962,39.6780688 C36.1758187,39.2462584 9.35737318,30.7685638 3.21172903,7.43908096 Z" id="sharp-copy" fill="#D7D7D7" transform="translate(55.242979, 24.038755) rotate(-356.000000) translate(-55.242979, -24.038755) "></path>
                <text id="JM" transform="translate(171.999391, 39.534899) rotate(-2.000000) translate(-171.999391, -39.534899) " font-family="AvenirNext-UltraLight, Avenir Next" font-size="4.5" font-weight="200" letter-spacing="-0.450000018" fill="#DCDCDC">
                    <tspan x="168.999391" y="41.0348995">JM</tspan>
                </text>
            </g>
        </g>
    </g>
</svg>
