
<svg viewBox="605 613 206 160" version="1.1" xmlns="http://www.w3.org/2000/svg" xmlns:xlink="http://www.w3.org/1999/xlink">
    <defs></defs>
    <path d="M683.961835,677.805581 L700.414397,649.148372 C701.641872,647.007474 700.89603,644.252926 698.75483,643.00361 L687.063547,636.311241 C684.922347,635.067429 682.156401,635.813166 680.928927,637.956815 L626.719136,732.343437 C625.488909,734.484335 626.237503,737.241635 628.378703,738.460681 L640.080995,745.191575 C642.222195,746.42438 644.988141,745.678643 646.215615,743.540497 L683.961835,677.805581 Z M761.380545,701.355198 C760.490579,699.804637 758.249855,695.762555 755.317938,690.52463 C754.990413,689.917149 754.762275,689.513579 754.531878,689.095139 C754.357951,688.797771 754.184023,688.498279 754.019131,688.192415 C753.87231,687.93328 753.725488,687.672021 753.578666,687.40439 C753.323422,686.939221 753.047849,686.474052 752.792605,685.99614 C752.699995,685.84958 752.627713,685.700896 752.535103,685.554336 C752.243718,685.014825 751.932005,684.481687 751.629326,683.935804 C751.548009,683.778624 751.455399,683.625692 751.362788,683.466387 C744.606732,671.439974 736.111403,656.631046 730.857446,648.8485 C721.684479,635.203556 709.435033,612.463397 706.010699,614.081929 C701.222053,616.324934 716.044267,645.190873 720.961664,656.038434 C725.867767,666.881747 745.029127,708.447426 748.864561,710.261371 C752.70903,712.068944 754.202094,711.064265 756.765826,710.06171 C759.329559,709.059154 763.923948,705.724384 761.581577,701.695048 C761.525108,701.603713 761.452826,701.480518 761.380545,701.355198 Z M636.174746,750.978082 L624.449866,744.273849 C622.304533,743.042908 620.316377,744.051291 620.035113,746.493939 L618.013867,764.084308 C617.721572,766.5352 619.174773,767.408948 621.220837,766.021392 L636.365014,755.736989 C638.408319,754.36317 638.320079,752.206276 636.174746,750.978082 Z M609.664163,675.407753 C607.637601,675.407753 606,677.020515 606,679.006579 L606,702.322095 C606,704.30816 607.637601,705.920922 609.664163,705.920922 L631.283074,705.920922 C632.121488,705.920922 633.140474,705.338627 633.565173,704.609809 L649.817869,676.718866 C650.239823,675.994758 649.905819,675.407753 649.05254,675.407753 L609.664163,675.407753 Z M682.967935,704.600015 C682.548427,705.329532 682.881665,705.920922 683.739146,705.920922 L729.838567,705.920922 C726.381575,699.11121 721.802404,689.36632 715.648762,675.407753 L701.278878,675.407753 C700.437213,675.407753 699.412277,676.003583 698.995323,676.728659 L682.967935,704.600015 Z M756.892531,675.407753 C761.073421,683.129981 764.954259,690.39839 767.686964,695.536782 C769.576548,699.091691 772.549791,704.871772 772.832484,705.920922 L792.472253,705.920922 C794.500703,705.920922 796.139831,704.30816 796.139831,702.322095 L796.139831,679.006579 C796.139831,677.020515 794.500703,675.407753 792.472253,675.407753 L756.892531,675.407753 Z M798.004979,769.474432 C790.566367,771.703862 781.076278,766.028322 777.88163,760.495176 C776.844243,758.698416 766.267521,738.50731 766.267521,738.50731 C766.267521,738.50731 766.603436,737.404656 766.85337,735.498006 C762.84345,722.750541 755.333978,716.949563 754.774885,715.981186 C754.226392,715.031168 754.480005,713.645592 754.480005,713.645592 L766.430875,714.78648 C766.430875,714.78648 770.773544,722.495367 772.928065,725.712404 C776.402535,731.168873 788.243245,747.793933 798.004979,769.474432 Z M783.078558,750.457206 C782.669343,749.748425 781.532529,747.779405 781.532529,747.779405 L781.567351,747.15052 L777.020521,739.27518 L776.941188,737.724914 L770.939311,727.329356 C768.909932,725.813046 766.979471,727.43162 767.178804,729.500486 C768.188263,731.248919 773.171589,739.880292 773.171589,739.880292 L774.599958,740.630691 L779.13784,748.490533 L779.589563,748.859422 C779.589563,748.859422 780.52621,750.481742 781.135485,751.537037 C781.435576,752.05681 783.378649,750.976978 783.078558,750.457206 Z" id="apps" stroke="#e6e6e6" stroke-width="1" stroke-linecap="round" stroke-linejoin="round" fill="none"></path>
</svg>
