<?xml version="1.0" encoding="UTF-8"?>
<svg viewBox="0 0 38 48" version="1.1" xmlns="http://www.w3.org/2000/svg" xmlns:xlink="http://www.w3.org/1999/xlink">
    <defs>
        <rect id="path-1" x="0" y="0" width="38" height="48" rx="2"></rect>
        <mask id="mask-2" maskContentUnits="userSpaceOnUse" maskUnits="objectBoundingBox" x="0" y="0" width="38" height="48" fill="white">
            <use xlink:href="#path-1"></use>
        </mask>
    </defs>
    <g stroke="none" stroke-width="1" fill="none" fill-rule="evenodd">
        <g id="blog">
            <g>
                <use id="Rectangle-409" stroke="#ffffff" mask="url(#mask-2)" stroke-width="2" xlink:href="#path-1"></use>
                <g id="abc" transform="translate(4.000000, 3.000000)">
                    <path d="M0.696,9.488 C0.696,8.8479968 0.98199714,8.3580017 1.554,8.018 C2.12600286,7.6779983 3.03599376,7.44000068 4.284,7.304 C4.284,7.11999908 4.26600018,6.94000088 4.23,6.764 C4.19399982,6.58799912 4.13000046,6.43200068 4.038,6.296 C3.94599954,6.15999932 3.82400076,6.05000042 3.672,5.966 C3.51999924,5.88199958 3.3240012,5.84 3.084,5.84 C2.73999828,5.84 2.42200146,5.90399936 2.13,6.032 C1.83799854,6.16000064 1.57600116,6.3039992 1.344,6.464 L0.948,5.78 C1.22000136,5.60399912 1.55199804,5.43400082 1.944,5.27 C2.33600196,5.10599918 2.76799764,5.024 3.24,5.024 C3.95200356,5.024 4.4679984,5.24199782 4.788,5.678 C5.1080016,6.11400218 5.268,6.69599636 5.268,7.424 L5.268,11 L4.452,11 L4.368,10.304 L4.344,10.304 C4.0639986,10.5360012 3.76200162,10.7339992 3.438,10.898 C3.11399838,11.0620008 2.7720018,11.144 2.412,11.144 C1.91599752,11.144 1.50600162,11.0000014 1.182,10.712 C0.85799838,10.4239986 0.696,10.0160026 0.696,9.488 L0.696,9.488 Z M1.668,9.416 C1.668,9.75200168 1.76599902,9.99199928 1.962,10.136 C2.15800098,10.2800007 2.39999856,10.352 2.688,10.352 C2.9680014,10.352 3.23399874,10.2860007 3.486,10.154 C3.73800126,10.0219993 4.0039986,9.82800128 4.284,9.572 L4.284,7.952 C3.79599756,8.01600032 3.38400168,8.09199956 3.048,8.18 C2.71199832,8.26800044 2.44200102,8.3719994 2.238,8.492 C2.03399898,8.6120006 1.88800044,8.74999922 1.8,8.906 C1.71199956,9.06200078 1.668,9.23199908 1.668,9.416 L1.668,9.416 Z M7.128,2.456 L8.112,2.456 L8.112,4.784 L8.088,5.84 C8.35200132,5.60799884 8.63999844,5.41400078 8.952,5.258 C9.26400156,5.10199922 9.58399836,5.024 9.912,5.024 C10.2880019,5.024 10.6199986,5.0939993 10.908,5.234 C11.1960014,5.3740007 11.437999,5.5739987 11.634,5.834 C11.830001,6.0940013 11.9779995,6.40599818 12.078,6.77 C12.1780005,7.13400182 12.228,7.53999776 12.228,7.988 C12.228,8.48400248 12.1600007,8.92799804 12.024,9.32 C11.8879993,9.71200196 11.7040012,10.0439986 11.472,10.316 C11.2399988,10.5880014 10.9720015,10.7939993 10.668,10.934 C10.3639985,11.0740007 10.0440017,11.144 9.708,11.144 C9.43599864,11.144 9.15400146,11.0820006 8.862,10.958 C8.56999854,10.8339994 8.29600128,10.6560012 8.04,10.424 L8.004,10.424 L7.92,11 L7.128,11 L7.128,2.456 Z M8.112,9.704 C8.36800128,9.92800112 8.62199874,10.0859995 8.874,10.178 C9.12600126,10.2700005 9.34799904,10.316 9.54,10.316 C9.7800012,10.316 10.001999,10.2620005 10.206,10.154 C10.410001,10.0459995 10.5859993,9.89400098 10.734,9.698 C10.8820007,9.50199902 10.9979996,9.26000144 11.082,8.972 C11.1660004,8.68399856 11.208,8.3600018 11.208,8 C11.208,7.6799984 11.1800003,7.38800132 11.124,7.124 C11.0679997,6.85999868 10.9780006,6.63400094 10.854,6.446 C10.7299994,6.25799906 10.570001,6.11200052 10.374,6.008 C10.177999,5.90399948 9.94400136,5.852 9.672,5.852 C9.19999764,5.852 8.68000284,6.11599736 8.112,6.644 L8.112,9.704 Z M13.356,8.096 C13.356,7.60799756 13.4319992,7.1740019 13.584,6.794 C13.7360008,6.4139981 13.9399987,6.09200132 14.196,5.828 C14.4520013,5.56399868 14.7499983,5.36400068 15.09,5.228 C15.4300017,5.09199932 15.7879981,5.024 16.164,5.024 C16.5480019,5.024 16.8779986,5.0939993 17.154,5.234 C17.4300014,5.3740007 17.667999,5.53599908 17.868,5.72 L17.376,6.356 C17.1999991,6.20399924 17.0180009,6.08000048 16.83,5.984 C16.6419991,5.88799952 16.4320012,5.84 16.2,5.84 C15.9359987,5.84 15.6920011,5.89399946 15.468,6.002 C15.2439989,6.11000054 15.0520008,6.263999 14.892,6.464 C14.7319992,6.664001 14.6060005,6.90199862 14.514,7.178 C14.4219995,7.45400138 14.376,7.75999832 14.376,8.096 C14.376,8.43200168 14.4199996,8.73599864 14.508,9.008 C14.5960004,9.28000136 14.7179992,9.51399902 14.874,9.71 C15.0300008,9.90600098 15.2199989,10.0579995 15.444,10.166 C15.6680011,10.2740005 15.9119987,10.328 16.176,10.328 C16.4560014,10.328 16.7099989,10.2700006 16.938,10.154 C17.1660011,10.0379994 17.3679991,9.9000008 17.544,9.74 L17.988,10.388 C17.7239987,10.6200012 17.4300016,10.8039993 17.106,10.94 C16.7819984,11.0760007 16.4440018,11.144 16.092,11.144 C15.7079981,11.144 15.3480017,11.0760007 15.012,10.94 C14.6759983,10.8039993 14.3860012,10.6060013 14.142,10.346 C13.8979988,10.0859987 13.7060007,9.7660019 13.566,9.386 C13.4259993,9.0059981 13.356,8.5760024 13.356,8.096 L13.356,8.096 Z" fill="#CCCCCC"></path>
                    <path d="M20,12 L20,0.5" id="Path-193" stroke-opacity="0.4" stroke="#E6E6E6" stroke-width="0.5"></path>
                </g>
                <g id="lines" transform="translate(8.000000, 20.000000)" stroke-opacity="0.3" stroke="#bbbbbb" stroke-linecap="round" stroke-linejoin="round">
                    <path d="M0.5,1 L24.5,1" id="Path-194"></path>
                    <path d="M0.5,8 L24.5,8" id="Path-194-Copy"></path>
                    <path d="M0.5,22 L24.5,22" id="Path-194-Copy-2"></path>
                    <path d="M0.5,15 L24.5,15" id="Path-194-Copy-3"></path>
                </g>
            </g>
        </g>
    </g>
</svg>
