<svg viewBox="610 278 184 37" version="1.1" xmlns="http://www.w3.org/2000/svg" xmlns:xlink="http://www.w3.org/1999/xlink">
    <defs></defs>
    <path d="M610,281.079685 C614.693878,300.892094 640.045973,314.999809 656.813605,315 C662.258503,315.000062 722.027211,312.546451 722.027211,312.546451 C722.027211,312.546451 724.092517,310.338255 728.097959,307.271321 C762.331973,299.665319 785.370211,309.111482 788.304762,309.111482 C791.183673,309.111483 794,306.719273 794,306.719273 L775.72517,281.079685 C775.72517,281.079685 752.506122,281.32504 742.367347,280.650314 C725.406803,279.914249 672.084354,274.823135 610,281.079685 Z M671.509684,289.294067 C673.657557,289.294067 679.624434,289.294067 679.624434,289.294067 L681.008057,288.39059 L704.873317,288.39059 L708.500836,286.538462 L740.003304,286.538462 C746.112485,289.158545 744.966952,295.663581 740.003304,297.923077 C734.704891,297.923077 708.548567,297.923077 708.548567,297.923077 L704.968778,295.663581 L681.150484,295.663581 L679.719333,295.121495 C679.719333,295.121495 674.80309,295.121495 671.605145,295.121495 C670.030038,295.121495 669.934577,289.294067 671.509684,289.294067 Z" id="scalpel" stroke="none" fill="#ffffff" fill-rule="evenodd"></path>
</svg>
